<svg xmlns="http://www.w3.org/2000/svg" viewBox="0 0 409.6 308.92"><title>banho</title><g id="Camada_2" data-name="Camada 2"><g id="Layer_1" data-name="Layer 1"><path d="M145.25,24.24a6.54,6.54,0,0,0-9.25,0L119.71,40.54A6.54,6.54,0,0,0,129,49.79l16.29-16.29a6.54,6.54,0,0,0,0-9.25Zm0,0"/><path d="M126.18,155.7l-12.94,12.94a6.54,6.54,0,0,0,9.25,9.25l12.94-12.94a6.54,6.54,0,1,0-9.25-9.25Zm0,0"/><path d="M166.28,92.42a6.54,6.54,0,0,0,0-9.25l-9-9A6.54,6.54,0,1,0,148,83.42l9,9a6.54,6.54,0,0,0,9.25,0Zm0,0"/><path d="M194.67,56.82a6.51,6.51,0,0,0,4.62-1.92L211,43.21A6.54,6.54,0,0,0,201.74,34L190,45.66a6.54,6.54,0,0,0,4.63,11.16Zm0,0"/><path d="M119.7,243.17,107.89,255a6.54,6.54,0,0,0,9.25,9.25L129,252.42a6.54,6.54,0,1,0-9.25-9.25Zm0,0"/><path d="M110.94,112.72a6.54,6.54,0,0,0,4.62-11.17l-10.8-10.8A6.54,6.54,0,1,0,95.51,100l10.8,10.8a6.51,6.51,0,0,0,4.63,1.92Zm0,0"/><path d="M172.28,208a6.54,6.54,0,0,0-9.25,9.25l16.17,16.17a6.54,6.54,0,0,0,9.25-9.25Zm0,0"/><path d="M296,79.33a6.54,6.54,0,0,0,4.63-11.16l-9.75-9.75a6.54,6.54,0,0,0-9.25,9.25l9.75,9.75A6.52,6.52,0,0,0,296,79.33Zm0,0"/><path d="M295.37,129.18l10.43-10.43a6.54,6.54,0,1,0-9.25-9.25l-10.43,10.43a6.54,6.54,0,0,0,9.25,9.25Zm0,0"/><path d="M372.26,11.52a37.2,37.2,0,0,0-31,16.62h-3.13A34.73,34.73,0,0,0,304,0H105.56A34.73,34.73,0,0,0,71.51,28.14H68.39a37.34,37.34,0,1,0,0,41.44h2.5V302.38a6.54,6.54,0,0,0,6.54,6.54H332.18a6.54,6.54,0,0,0,6.54-6.54V69.57h2.5a37.33,37.33,0,1,0,31-58.06ZM37.34,73.11A24.26,24.26,0,1,1,50,28.14H37.45a20.72,20.72,0,0,0,0,41.44H50a24.23,24.23,0,0,1-12.64,3.54ZM70.88,56.49H37.45a7.64,7.64,0,1,1,0-15.27H70.88ZM84,295.84V282.39H325.64v13.45Zm241.67-26.53H84V34.68a21.62,21.62,0,0,1,21.59-21.6H304a21.62,21.62,0,0,1,21.6,21.6ZM338.72,56.49V41.22h33.44a7.64,7.64,0,1,1,0,15.27Zm33.54,16.62a24.21,24.21,0,0,1-12.64-3.54h12.53a20.72,20.72,0,1,0,0-41.44H359.63a24.26,24.26,0,1,1,12.64,45Zm0,0"/><path d="M300.59,194.21a6.54,6.54,0,0,0-9.25,9.25l13.09,13.09a6.54,6.54,0,1,0,9.25-9.25Zm0,0"/><path d="M196.42,138a6.54,6.54,0,0,0-9.25,9.25l17.44,17.45a6.54,6.54,0,0,0,9.25-9.25Zm0,0"/><path d="M264,162.73l-11.82,11.82a6.54,6.54,0,0,0,9.25,9.25L273.3,172a6.54,6.54,0,0,0-9.25-9.25Zm0,0"/><path d="M253.73,97.34a6.54,6.54,0,0,0,0-9.25L239.81,74.17a6.54,6.54,0,0,0-9.25,9.25l13.92,13.92a6.54,6.54,0,0,0,9.25,0Zm0,0"/><path d="M263.34,238l-15.89,15.9a6.54,6.54,0,0,0,9.25,9.25l15.89-15.9a6.54,6.54,0,1,0-9.25-9.25Zm0,0"/></g></g></svg>