<svg xmlns="http://www.w3.org/2000/svg" viewBox="0 0 409.6 379.4"><title>cama</title><g id="Camada_2" data-name="Camada 2"><g id="Layer_1" data-name="Layer 1"><path d="M401.6,277.06h-13.2V225a47.82,47.82,0,0,0-12.79-32.57l1.07-48.29c2.45-24-5.52-47.51-22.44-66.32-19.06-21.18-47-33.84-77.43-35.18C264.87,16.92,236.66,0,204.8,0s-60.07,16.92-72,42.63C102.39,44,74.4,56.62,55.35,77.8,38.42,96.62,30.46,120.16,32.9,144.13L34,192.42A47.82,47.82,0,0,0,21.19,225v52.06H8a8,8,0,0,0-8,8v46a8,8,0,0,0,8,8H38.9l9.91,34.5a8,8,0,0,0,7.69,5.79H78.91a8,8,0,0,0,8-8V339.1H322.69v32.3a8,8,0,0,0,8,8h22.41a8,8,0,0,0,7.69-5.79l9.91-34.5H401.6a8,8,0,0,0,8-8v-46a8,8,0,0,0-8-8ZM67.24,88.5c17.15-19.06,43-30,70.92-30a8,8,0,0,0,7.52-5.26C153.8,31,177.56,16,204.8,16s51,15,59.12,37.25a8,8,0,0,0,7.52,5.26c27.92,0,53.78,10.93,70.92,30,13.93,15.49,20.47,34.76,18.4,54.28,0,.22,0,.44,0,.66l-.84,37.66-.7-.29-.34-.14c-.6-.25-1.21-.49-1.82-.72l-.53-.19c-.56-.2-1.12-.39-1.68-.57l-.75-.22c-.51-.15-1-.3-1.53-.44l-1-.24c-.45-.1-.89-.22-1.35-.31s-.82-.15-1.23-.23-.77-.15-1.16-.21-1-.13-1.47-.19l-.6-.08V164.83a34.44,34.44,0,0,0-34.4-34.4H255.2a34.44,34.44,0,0,0-34.4,34.4V177h-32V164.83a34.44,34.44,0,0,0-34.4-34.4H98.25a34.44,34.44,0,0,0-34.4,34.4v12.46l-.6.08c-.49.06-1,.12-1.47.19s-.78.14-1.17.21-.82.14-1.22.23-.91.21-1.37.32l-1,.23c-.52.14-1,.29-1.55.44l-.72.21c-.57.18-1.15.38-1.72.58l-.49.18c-.62.23-1.24.48-1.86.73l-.29.12-.71.29-.84-37.65c0-.22,0-.45,0-.66C46.78,123.26,53.31,104,67.24,88.5Zm262.5,76.33V177H236.8V164.83a18.42,18.42,0,0,1,18.4-18.4h56.15a18.42,18.42,0,0,1,18.4,18.4Zm-156.95,0V177H79.85V164.83a18.42,18.42,0,0,1,18.4-18.4H154.4a18.42,18.42,0,0,1,18.4,18.4ZM37.19,230.46H281.93a8,8,0,0,0,0-16H39a32.16,32.16,0,0,1,17.77-18.95h0c.44-.19.9-.37,1.36-.54l.18-.07,1.21-.41.33-.11,1.1-.31.45-.12,1-.23.54-.12,1-.17.6-.1.95-.12.61-.07,1-.08.53,0c.52,0,1,0,1.58,0H340.4c.53,0,1.06,0,1.58,0l.54,0,1,.08.62.07.93.12.61.1.93.17.56.12,1,.23.48.13,1.06.3.37.12,1.17.39.23.09c.44.16.88.33,1.31.52l.07,0A32.06,32.06,0,0,1,372.41,225v52.06H37.19ZM62.53,363.39l-7-24.3H70.91v24.3Zm284.54,0h-8.38V339.1h15.36Zm46.53-40.3H16v-30H393.6Zm0,0"/><path d="M216.11,67.44l5.27-5.27a8,8,0,0,0-11.32-11.32l-5.26,5.27-5.27-5.27a8,8,0,0,0-11.31,11.32l5.26,5.27-5.26,5.27A8,8,0,0,0,199.53,84l5.27-5.27L210.07,84a8,8,0,0,0,11.32-11.32Zm0,0"/><path d="M303.68,100.75l5.27-5.27a8,8,0,1,0-11.31-11.31l-5.27,5.27-5.27-5.27a8,8,0,0,0-11.31,11.31l5.27,5.27L275.78,106a8,8,0,1,0,11.31,11.31l5.27-5.27,5.27,5.27A8,8,0,1,0,308.95,106Zm0,0"/><path d="M128.54,100.75l5.27-5.27A8,8,0,0,0,122.5,84.16l-5.27,5.27L112,84.16a8,8,0,0,0-11.31,11.31l5.27,5.27L100.65,106A8,8,0,0,0,112,117.33l5.27-5.27,5.27,5.27A8,8,0,1,0,133.81,106Zm0,0"/><path d="M318.77,216.8a8.09,8.09,0,0,0-1.21-1,8.56,8.56,0,0,0-1.38-.73,8.24,8.24,0,0,0-1.5-.46,8,8,0,0,0-3.13,0,8.24,8.24,0,0,0-1.5.46,8,8,0,0,0-2.6,1.73,8.07,8.07,0,0,0-2.34,5.66,7.81,7.81,0,0,0,.16,1.57,8.29,8.29,0,0,0,.45,1.5,8.05,8.05,0,0,0,.74,1.38,7.87,7.87,0,0,0,1,1.22,8.19,8.19,0,0,0,1.22,1,8.36,8.36,0,0,0,1.38.74,7.92,7.92,0,0,0,1.5.45,8.08,8.08,0,0,0,3.13,0,7.92,7.92,0,0,0,1.5-.45,8.43,8.43,0,0,0,1.38-.74,7.68,7.68,0,0,0,1.21-1,7.25,7.25,0,0,0,1-1.22,8.05,8.05,0,0,0,.74-1.37,8.29,8.29,0,0,0,.45-1.5,7.9,7.9,0,0,0,.16-1.57,8.07,8.07,0,0,0-2.34-5.66Zm0,0"/></g></g></svg>