<svg xmlns="http://www.w3.org/2000/svg" viewBox="0 0 259.41 409.6"><title>decoracao</title><g id="Camada_2" data-name="Camada 2"><g id="Layer_1" data-name="Layer 1"><path d="M225.28,361.81a6.82,6.82,0,0,0,6.82-6.82V54.61a6.82,6.82,0,0,0-6.82-6.82H34.13a6.82,6.82,0,0,0-6.83,6.82V355a6.82,6.82,0,0,0,6.83,6.82ZM72.26,61.44,56.61,77.09a6.82,6.82,0,0,0,0,9.65l27.3,27.31a6.83,6.83,0,0,0,9.66,0l27.3-27.31a6.82,6.82,0,0,0,0-9.65L105.23,61.44h49L138.53,77.09a6.81,6.81,0,0,0,0,9.65l27.31,27.31a6.82,6.82,0,0,0,9.65,0L202.8,86.75a6.82,6.82,0,0,0,0-9.65L187.14,61.44h31.31V188.32L202.8,172.67a6.81,6.81,0,0,0-9.65,0L165.84,200a6.82,6.82,0,0,0,0,9.65l27.31,27.31a6.82,6.82,0,0,0,9.65,0l15.65-15.65V348.16H187.14l15.66-15.65a6.82,6.82,0,0,0,0-9.65l-27.31-27.31a6.82,6.82,0,0,0-9.65,0l-27.31,27.31a6.82,6.82,0,0,0,0,9.65l15.65,15.65h-49l15.65-15.65a6.81,6.81,0,0,0,0-9.65l-27.3-27.31a6.82,6.82,0,0,0-9.65,0L56.61,322.86a6.82,6.82,0,0,0,0,9.65l15.66,15.65H41V221.28l15.65,15.66a6.82,6.82,0,0,0,9.65,0l27.31-27.3a6.83,6.83,0,0,0,0-9.66L66.26,172.67a6.82,6.82,0,0,0-9.65,0L41,188.32V61.44Zm16.48,2.82L106.4,81.92,88.75,99.57,71.09,81.92Zm81.92,0,17.65,17.66L170.67,99.57,153,81.92Zm45,140.54L198,222.45,180.32,204.8,198,187.15Zm-45,140.53L153,327.68,170.67,310l17.65,17.65Zm-81.92,0L71.09,327.68,88.75,310l17.66,17.65Zm-45-140.53,17.66-17.66L79.09,204.8,61.44,222.45Zm0,0"/><path d="M252.59,0a6.82,6.82,0,0,0-6.82,6.83V20.48H232.11V6.83a6.83,6.83,0,1,0-13.65,0V20.48H204.8V6.83a6.83,6.83,0,0,0-13.66,0V20.48H177.49V6.83a6.83,6.83,0,1,0-13.65,0V20.48H150.19V6.83a6.83,6.83,0,1,0-13.65,0V20.48H122.88V6.83a6.83,6.83,0,1,0-13.65,0V20.48H95.57V6.83a6.83,6.83,0,0,0-13.66,0V20.48H68.26V6.83a6.83,6.83,0,1,0-13.65,0V20.48H41V6.83a6.83,6.83,0,0,0-13.66,0V20.48H13.65V6.83A6.83,6.83,0,1,0,0,6.83V402.77a6.83,6.83,0,0,0,13.65,0V389.12H27.3v13.65a6.83,6.83,0,1,0,13.66,0V389.12H54.61v13.65a6.83,6.83,0,1,0,13.65,0V389.12H81.92v13.65a6.83,6.83,0,1,0,13.65,0V389.12h13.66v13.65a6.83,6.83,0,1,0,13.65,0V389.12h13.65v13.65a6.83,6.83,0,1,0,13.65,0V389.12h13.66v13.65a6.83,6.83,0,1,0,13.65,0V389.12h13.65v13.65a6.83,6.83,0,1,0,13.66,0V389.12h13.65v13.65a6.83,6.83,0,1,0,13.65,0V389.12h13.65v13.65a6.83,6.83,0,1,0,13.65,0V6.83A6.82,6.82,0,0,0,252.59,0ZM13.65,34.13H245.76V375.47H13.65Zm0,0"/><path d="M124.88,168.67a6.83,6.83,0,0,0,9.66,0l27.31-27.31a6.82,6.82,0,0,0,0-9.65L134.53,104.4a6.82,6.82,0,0,0-9.66,0L97.57,131.71a6.82,6.82,0,0,0,0,9.65Zm4.83-49.79,17.65,17.65-17.65,17.66-17.65-17.66Zm0,0"/><path d="M134.53,240.93a6.82,6.82,0,0,0-9.66,0l-27.31,27.3a6.82,6.82,0,0,0,0,9.66l27.31,27.3a6.82,6.82,0,0,0,9.65,0l27.31-27.3a6.83,6.83,0,0,0,0-9.66Zm-4.83,49.79-17.65-17.66,17.65-17.65,17.65,17.65Zm0,0"/></g></g></svg>