<svg xmlns="http://www.w3.org/2000/svg" viewBox="0 0 409.6 375.47"><title>infantil</title><g id="Camada_2" data-name="Camada 2"><g id="Layer_1" data-name="Layer 1"><path d="M97,135.13a8.54,8.54,0,0,0-11.59,3.38l-.17.31a8.53,8.53,0,1,0,15,8.2l.17-.31A8.53,8.53,0,0,0,97,135.13Zm0,0"/><path d="M370.1,162.27A170.71,170.71,0,0,0,268.29,46.32a66.66,66.66,0,0,0-127,0A171,171,0,0,0,39.46,162.27a42.65,42.65,0,0,0,0,85.07c18.95,73.59,85.87,128.13,165.3,128.13s146.35-54.54,165.3-128.13a42.65,42.65,0,0,0,0-85.07Zm-353,42.53a25.65,25.65,0,0,1,18.84-24.69q-1.09,7.62-1.52,15.38v.21c0,.94-.09,1.88-.12,2.82,0,.36,0,.72,0,1.07,0,.68,0,1.35-.05,2q0,1.59,0,3.18,0,1.93.05,3.88c0,.4,0,.81,0,1.21,0,.94.06,1.88.11,2.82q0,.6.06,1.2.09,1.76.22,3.51c0,.55.09,1.1.13,1.65s.12,1.39.19,2.09.12,1.22.18,1.83.16,1.43.25,2.14q.17,1.4.35,2.79c.07.53.14,1.06.22,1.59a25.65,25.65,0,0,1-18.85-24.7ZM204.8,17.07a49.83,49.83,0,0,1,41.38,22.26h-1a48.58,48.58,0,0,0-39,76.9l-1.41,0a49.6,49.6,0,0,1,0-99.19ZM358.34,208.84c0,.21,0,.41,0,.62,0,1.15-.07,2.29-.14,3.43,0,.2,0,.41,0,.61q-.09,1.71-.22,3.43c0,.23,0,.46-.06.69-.09,1.1-.19,2.2-.3,3.3,0,.31-.07.61-.11.92-.11,1-.23,2-.36,3l-.18,1.26q-.18,1.31-.38,2.61c-.09.56-.18,1.12-.28,1.68s-.23,1.4-.36,2.1-.27,1.42-.41,2.13c-.1.53-.21,1.06-.32,1.59C340.62,305.9,278.73,358.4,204.8,358.4S68.89,305.82,54.4,236.08c-.13-.63-.25-1.27-.37-1.91s-.24-1.21-.35-1.82c-.16-.86-.3-1.73-.44-2.59-.07-.4-.14-.79-.2-1.19q-.25-1.65-.47-3.3c0-.18-.05-.37-.08-.56-.17-1.29-.32-2.59-.46-3.89v0a154.31,154.31,0,0,1-.83-16c0-1.2,0-2.41,0-3.62,0-.39,0-.79,0-1.19,0-.81.06-1.62.1-2.43,0-.47,0-.94.07-1.41,0-.72.09-1.44.14-2.16q.13-1.86.31-3.71c0-.14,0-.28,0-.42A154.51,154.51,0,0,1,138.15,66.39c0,.09,0,.18,0,.27a66.4,66.4,0,0,0,2.39,17.65,135.37,135.37,0,0,0-40,32.39,8.53,8.53,0,1,0,13,11,118.49,118.49,0,0,1,33.65-27.58,66.66,66.66,0,0,0,79.63,29.49,8.54,8.54,0,0,0,1.81-15.23,31.49,31.49,0,0,1,16-58A153.53,153.53,0,0,1,355.14,173.29q.29,1.39.56,2.78c.09.48.18,1,.26,1.46q.21,1.14.39,2.28c.08.46.15.91.22,1.37.13.86.26,1.71.38,2.57.05.36.1.72.15,1.07q.49,3.74.79,7.51c0,.29,0,.58.06.87.07,1,.14,1.93.19,2.9q0,.56.06,1.13c0,.92.08,1.84.11,2.76,0,.35,0,.71,0,1.07,0,1.25,0,2.5,0,3.75s0,2.7-.05,4Zm15.34,20.65c.09-.64.18-1.29.27-1.94s.18-1.37.26-2.05c.11-.86.21-1.72.3-2.59.06-.57.12-1.13.17-1.7q.11-1.11.2-2.23c0-.52.09-1,.13-1.54.09-1.19.16-2.37.23-3.56,0-.38,0-.77.05-1.15,0-1,.08-1.91.11-2.86,0-.4,0-.8,0-1.2,0-1.29.05-2.59.05-3.88,0-1.12,0-2.25,0-3.37,0-.41,0-.82,0-1.23,0-.71,0-1.41-.07-2.12,0-.5,0-1-.07-1.5s-.06-1.21-.1-1.82-.07-1.09-.1-1.64-.08-1.12-.12-1.68-.09-1.14-.14-1.7-.1-1.09-.16-1.64-.11-1.12-.16-1.69-.15-1.27-.22-1.9-.17-1.41-.26-2.11-.2-1.53-.31-2.3a25.6,25.6,0,0,1,0,49.39Zm0,0"/><path d="M174.44,214.68a34.13,34.13,0,0,0-65.94,0A8.53,8.53,0,0,0,125,219.1a17.06,17.06,0,0,1,33,0,8.54,8.54,0,0,0,16.49-4.42Zm0,0"/><path d="M268.13,189.38a34.18,34.18,0,0,0-33,25.3,8.53,8.53,0,0,0,16.49,4.41,17.07,17.07,0,0,1,33,0,8.53,8.53,0,0,0,16.49-4.42,34.19,34.19,0,0,0-33-25.3Zm0,0"/><path d="M231.74,274.55a8.54,8.54,0,0,0-10.45,6,17.07,17.07,0,0,1-33,0A8.53,8.53,0,1,0,171.83,285a34.13,34.13,0,0,0,65.94,0,8.54,8.54,0,0,0-6-10.45Zm0,0"/></g></g></svg>