<svg xmlns="http://www.w3.org/2000/svg" viewBox="0 0 409.6 367.78"><title>mesa</title><g id="Camada_2" data-name="Camada 2"><g id="Layer_1" data-name="Layer 1"><path d="M389,206.32a20.59,20.59,0,1,0,0-41.18H239.27v-18.8a57.93,57.93,0,0,0,23.51-46.59V93.68H215.23L228,80.95a34,34,0,0,0,13.75-3.49c7.76-3.84,17.61-12.59,20.51-32.47l1.18-8.08-8.08,1.18C235.43,41,226.68,50.84,222.84,58.6a34.06,34.06,0,0,0-3.49,13.75L211,80.73V53.19A21.55,21.55,0,0,0,226.4,32.55V9.61H211V0H198.8V9.61H183.37V32.55A21.55,21.55,0,0,0,198.8,53.19v18.9l-8.39-8.39A34,34,0,0,0,186.93,50c-3.84-7.76-12.59-17.61-32.47-20.51l-8.08-1.18,1.18,8.08c2.9,19.88,12.75,28.63,20.51,32.47a34.06,34.06,0,0,0,13.74,3.49l17,17v4.39h-52v6.08a57.92,57.92,0,0,0,23.51,46.59v18.8H20.59a20.59,20.59,0,1,0,0,41.18h21v10.08L7.83,367.78h34L84.52,228.24h35.76v14.09a32.81,32.81,0,0,0,32.8,32.8H256.52a32.8,32.8,0,0,0,32.8-32.8V228.24h35.76l42.68,139.54h34L368,216.41V206.32Zm-141-154C244.1,63.14,237.16,66.92,232.1,68.2c1.28-5,5.05-12,15.87-15.87Zm-86.18-8.64c10.81,3.87,14.59,10.8,15.87,15.87-5.07-1.29-12-5.07-15.87-15.87Zm-129,311.93H23l4.78-21.39H39.38ZM43.1,322.06H30.51l21-93.82H71.79Zm45.14-106H53.8v-9.75h66.48v9.75Zm32-21.91H20.59a8.42,8.42,0,0,1,0-16.85h99.69Zm75.26-161.6V21.78h18.69V32.55a9.35,9.35,0,1,1-18.69,0Zm-36.15,73.29h90.82a45.81,45.81,0,0,1-90.82,0Zm67.71,47.43v11.88H182.5V153.27a57.93,57.93,0,0,0,44.6,0Zm-94.65,24h144.7v24.43L251.93,188l-31.52,16.29L189,188.93l-31.3,16.18L132.45,192Zm140.88,77A20.68,20.68,0,0,1,256.52,263H153.08a20.62,20.62,0,0,1-20.63-20.63v-2.9l25.29,13.08,31.37-16.22,31.37,16.22,31.38-16.22,24.25,12.53a20.35,20.35,0,0,1-2.77,5.47Zm3.82-18.62-25.29-13.08-31.38,16.22-31.37-16.22-31.37,16.22-25.29-13.08v-20l25.29,13.08,31.44-16.26L220.55,218l31.23-16.15,25.36,13.77Zm44.21-19.6h-32v-9.75H355.8v9.75Zm65.23,139.54h-9.82l-6.54-21.39h11.59Zm-7.49-33.55H366.5l-28.7-93.82h20.34Zm-89.78-127.9V177.31H389a8.42,8.42,0,1,1,0,16.85Zm0,0"/></g></g></svg>