<svg xmlns="http://www.w3.org/2000/svg" viewBox="0 0 339.88 409.6"><title>utilidades-domesticas</title><g id="Camada_2" data-name="Camada 2"><g id="Layer_1" data-name="Layer 1"><path d="M112.26,26.65C99.89,9.46,83.24,0,65.36,0S30.83,9.46,18.46,26.65C6.56,43.18,0,65.06,0,88.24c0,39.09,18.59,72.86,45.75,84.24V390A19.61,19.61,0,1,0,85,390V172.47c27.16-11.37,45.75-45.15,45.75-84.24,0-23.18-6.56-45.06-18.46-61.59Zm-35.79,135a6.54,6.54,0,0,0-4.57,6.23V390a6.53,6.53,0,0,1-13.07,0V167.91a6.54,6.54,0,0,0-4.58-6.23c-23.86-7.52-41.18-38.41-41.18-73.44,0-41.44,23.46-75.16,52.29-75.16s52.29,33.72,52.29,75.16c0,35-17.32,65.92-41.18,73.44Zm0,0"/><path d="M333.34,0A67.62,67.62,0,0,0,265.8,67.54V215.7a6.53,6.53,0,0,0,6.54,6.54h10.89v159a28.32,28.32,0,1,0,56.64,0V6.54A6.53,6.53,0,0,0,333.34,0Zm-6.53,381.28a15.25,15.25,0,0,1-30.5,0V248.38h30.5Zm0-146h-30.5V222.23h30.5Zm0-26.15H278.88V67.54a54.55,54.55,0,0,1,47.93-54.08Zm0,0"/><path d="M237.48,0a6.53,6.53,0,0,0-6.54,6.54v71.9H217.88V6.54a6.54,6.54,0,0,0-13.07,0v71.9H191.73V6.54a6.54,6.54,0,0,0-13.07,0v71.9H165.59V6.54a6.54,6.54,0,0,0-13.07,0V130.72a45.84,45.84,0,0,0,26.15,41.34V390a19.61,19.61,0,1,0,39.21,0V172.07A45.84,45.84,0,0,0,244,130.72V6.54A6.54,6.54,0,0,0,237.48,0Zm-6.54,130.72a32.74,32.74,0,0,1-21.79,30.82,6.53,6.53,0,0,0-4.36,6.16V390a6.54,6.54,0,0,1-13.07,0V167.7a6.53,6.53,0,0,0-4.36-6.16,32.74,32.74,0,0,1-21.79-30.82V91.51h13.08v2.18a6.53,6.53,0,1,0,13.07,0V91.51H204.8v2.18a6.53,6.53,0,1,0,13.07,0V91.51h13.07v39.21Zm0,0"/></g></g></svg>