<svg xmlns="http://www.w3.org/2000/svg" viewBox="0 0 409.6 333.6"><title>vendas-no-atacado</title><g id="Camada_2" data-name="Camada 2"><g id="Layer_1" data-name="Layer 1"><path d="M170.58,111.5H133.5a6.47,6.47,0,1,0,0,12.94h37.08a6.47,6.47,0,1,0,0-12.94Zm0,0"/><path d="M327.68,308.11h37.08a6.47,6.47,0,1,0,0-12.93H327.68a6.47,6.47,0,1,0,0,12.93Zm0,0"/><path d="M170.58,133.06H133.5a6.47,6.47,0,1,0,0,12.93h37.08a6.47,6.47,0,1,0,0-12.93Zm0,0"/><path d="M133.5,283.1h37.08a6.47,6.47,0,0,0,0-12.93H133.5a6.47,6.47,0,1,0,0,12.93Zm0,0"/><path d="M133.5,304.66h37.08a6.47,6.47,0,0,0,0-12.93H133.5a6.47,6.47,0,1,0,0,12.93Zm0,0"/><path d="M73.19,0H16.82A16.73,16.73,0,0,0,0,16.69v139.7a16.69,16.69,0,0,0,3.59,10.35A16.71,16.71,0,0,0,0,177.08v139.7A16.83,16.83,0,0,0,16.82,333.6H147.6a6.47,6.47,0,0,0,0-12.94H16.82a3.88,3.88,0,0,1-3.88-3.88V177.08a3.88,3.88,0,0,1,3.88-3.88H73.19v73.73A6.46,6.46,0,0,0,83.66,252l18.41-14.55L120.48,252A6.46,6.46,0,0,0,131,246.93V173.2h56.37a3.88,3.88,0,0,1,3.88,3.88v139.7a3.89,3.89,0,0,1-3.88,3.88h-17.6a6.47,6.47,0,1,0,0,12.93h17.6a16.74,16.74,0,0,0,9.39-2.87,13.86,13.86,0,0,0,8.45,2.88H398.23a11.37,11.37,0,0,0,11.36-11.36V256.14a11.37,11.37,0,0,0-11.36-11.36H353V176.22a6.47,6.47,0,0,0-12.93,0v68.56H290a11.38,11.38,0,0,0-11.36,11.36v64.52H205.18a1,1,0,0,1-1-1V82.85a1,1,0,0,1,1-1h38v73.73a6.47,6.47,0,0,0,10.48,5.07l18.41-14.56,18.41,14.56A6.47,6.47,0,0,0,301,155.55V81.82h38a1,1,0,0,1,1,1v71.81a6.47,6.47,0,0,0,12.93,0V82.85a14,14,0,0,0-14-14H205.18c-.35,0-.69,0-1,0V16.69c0-3.07-.84-14.2-2.29-16.69m54.3,81.82h31.91V142.2l-11.94-9.44a6.46,6.46,0,0,0-8,0l-11.95,9.44Zm-170-69H118V73.18l-11.95-9.44a6.48,6.48,0,0,0-8,0L86.12,73.18ZM118,233.57l-11.95-9.44a6.46,6.46,0,0,0-8,0l-11.94,9.44V173.2H118ZM191.21,82.85v73.53a3.89,3.89,0,0,1-3.88,3.88H16.82a3.89,3.89,0,0,1-3.88-3.88V16.69a3.89,3.89,0,0,1,3.88-3.88H73.19V86.54a6.47,6.47,0,0,0,10.48,5.07l18.41-14.55,18.41,14.55A6.47,6.47,0,0,0,131,86.54V12.81h56.37a3.89,3.89,0,0,1,3.88,3.88Zm205.45,237.8H291.57V284.4H396.66Zm0-49.19H291.57V257.72H396.66Zm0,0"/></g></g></svg>