<svg xmlns="http://www.w3.org/2000/svg" xmlns:xlink="http://www.w3.org/1999/xlink" viewBox="0 0 409.6 409.6"><defs><style>.cls-1{fill:none;}.cls-2{clip-path:url(#clip-path);}</style><clipPath id="clip-path" transform="translate(0 -0.32)"><rect class="cls-1" width="409.92" height="410.88"/></clipPath></defs><title>cards</title><g id="Camada_2" data-name="Camada 2"><g id="Layer_1" data-name="Layer 1"><path d="M196.5,295.1h-49a8,8,0,1,0,0,16h49a8,8,0,1,0,0-16Zm0,0" transform="translate(0 -0.32)"/><path d="M278.61,295.1h-49a8,8,0,1,0,0,16h49a8,8,0,1,0,0-16Zm0,0" transform="translate(0 -0.32)"/><path d="M361.86,295.1h-49a8,8,0,1,0,0,16h49a8,8,0,1,0,0-16Zm0,0" transform="translate(0 -0.32)"/><path d="M346.06,322.7a31,31,0,0,0-14.47,3.57,31.2,31.2,0,1,0,0,55.26,31.19,31.19,0,1,0,14.47-58.83ZM318.77,369a16.26,16.26,0,0,1-1.65.09,15.2,15.2,0,1,1,1.65-30.3,31.1,31.1,0,0,0,0,30.21Zm12.82-10.46a15,15,0,0,1,0-9.29,15.06,15.06,0,0,1,0,9.29Zm14.47,10.55a15.22,15.22,0,0,1-1.65-.09,31.11,31.11,0,0,0,0-30.21,15.2,15.2,0,1,1,1.65,30.3Zm0,0" transform="translate(0 -0.32)"/><path d="M204.81,224.35H147.2a8,8,0,0,0-8,8v36.77a8,8,0,0,0,8,8h57.6a8,8,0,0,0,8-8V232.35a8,8,0,0,0-8-8Zm-8,36.77H155.2V240.35h41.6Zm0,0" transform="translate(0 -0.32)"/><g class="cls-2"><path d="M205.66,393.92h-.1a8,8,0,1,0,0,16h.1a8,8,0,1,0,0-16Zm0,0" transform="translate(0 -0.32)"/><path d="M385.6,196.29H305.5l37.88-37.88a24,24,0,0,0,0-33.94L226.26,7.34a24,24,0,0,0-33.94,0L7,192.64a24,24,0,0,0,0,33.94l92.52,92.52v66.81a24,24,0,0,0,24,24h43a8,8,0,1,0,0-16h-43a8,8,0,0,1-8-8V220.29a8,8,0,0,1,8-8H385.6a8,8,0,0,1,8,8V385.92a8,8,0,0,1-8,8H237.77a8,8,0,0,0,0,16H385.6a24,24,0,0,0,24-24V220.29a24,24,0,0,0-24-24Zm-367.27,19a8,8,0,0,1,0-11.32L203.64,18.65a8,8,0,0,1,11.31,0l12.13,12.13L30.46,227.4Zm81.21,81.21L67.77,264.71l31.77-31.77ZM235.06,196.29l18.2-18.2a8,8,0,1,0-11.32-11.32l-29.51,29.52H191.33l43.42-43.43a8,8,0,0,0-11.31-11.32L168.7,196.29H136.2L224.48,108a8,8,0,0,0-11.31-11.31L56.46,253.4,41.78,238.72,238.39,42.1l93.68,93.68a8,8,0,0,1,0,11.32l-49.2,49.2Zm0,0" transform="translate(0 -0.32)"/></g><path d="M245.77,75.41a8,8,0,1,0,2.34,5.66,8.07,8.07,0,0,0-2.34-5.66Zm0,0" transform="translate(0 -0.32)"/></g></g></svg>