<svg xmlns="http://www.w3.org/2000/svg" viewBox="0 0 517 478.77"><title>cart</title><g id="Camada_2" data-name="Camada 2"><g id="Layer_1" data-name="Layer 1"><path class="cls-1" d="M217.18,386.21a45,45,0,1,0,45,45A45.08,45.08,0,0,0,217.18,386.21Zm0,64.91a19.89,19.89,0,1,1,19.89-19.89A19.91,19.91,0,0,1,217.18,451.13Z"/><path class="cls-1" d="M375.13,386.21a45,45,0,1,0,45,45A45.08,45.08,0,0,0,375.13,386.21Zm0,64.91A19.89,19.89,0,1,1,395,431.24,19.91,19.91,0,0,1,375.13,451.13Z"/><path class="cls-1" d="M206.07,174.28H386.22a12.57,12.57,0,1,0,0-25.14H206.07a12.57,12.57,0,0,0,0,25.14Z"/><path class="cls-1" d="M376.41,214.42H215.87a12.57,12.57,0,0,0,0,25.14H376.41a12.57,12.57,0,0,0,0-25.14Z"/><path class="cls-1" d="M508.84,93.13a25,25,0,0,0-19.49-9.26H97.78L89.87,45.48a25.17,25.17,0,0,0-14.61-18L20.08,3.54a12.57,12.57,0,0,0-10,23.06l55.18,24,60.83,295.26a25.24,25.24,0,0,0,24.63,20.07H451.86a12.57,12.57,0,0,0,0-25.14H150.7l-7.4-35.92H454.19a25.23,25.23,0,0,0,24.62-20.07L514,114.08A25,25,0,0,0,508.84,93.13ZM454.19,279.69H138.12L103,109H489.35Z"/></g></g></svg>