<svg xmlns="http://www.w3.org/2000/svg" viewBox="0 0 437.52 423.13"><title>cart</title><g id="Camada_2" data-name="Camada 2"><g id="Layer_1" data-name="Layer 1"><path d="M353.83,373.85a24.64,24.64,0,1,1-24.64,24.64A24.64,24.64,0,0,1,353.83,373.85Z"/><path d="M94.64,373.85A24.64,24.64,0,1,1,70,398.49,24.64,24.64,0,0,1,94.64,373.85Z"/><path d="M437.52,99.23,408.76,245.49c-2.45,14.08-12.25,23.87-25.1,23.87L134.58,281l-31.21,49.57H373.26c14.08,0,25.7,12.24,25.7,26.32,0,4.89-4.28,10.4-9.18,10.4s-9.18-4.89-9.18-9.79c0-3.67-3.06-8.57-7.34-8.57H105.81c-10.4,0-17.74-1.83-21.42-8.57-4.89-9.18,1.23-17.74,2.45-19.58l31.83-50.18L45.23,26.4C44,24,34.21,17.22,7.28,17.22c0,0-9.81.38-6.66-10.71,0,0,.77-7.36,15.84-6.43C55,1.92,62.36,17.83,63.59,22.73l9.18,30.6,339.66,20.8A25.21,25.21,0,0,1,437.52,99.23Z"/></g></g></svg>