<svg xmlns="http://www.w3.org/2000/svg" viewBox="0 0 20 16"><title>cart</title><g id="Camada_2" data-name="Camada 2"><g id="Capa_1" data-name="Capa 1"><path class="cls-1" d="M17.58,10.45l2.36-7a.67.67,0,0,0-.07-.67A1.07,1.07,0,0,0,19,2.44H5.67L5.31.77a.94.94,0,0,0-1-.77H.6C.21,0,0,.18,0,.54v1c0,.35.21.44.61.44H3.79L6.21,12.12A2.31,2.31,0,0,0,7.83,16,2.47,2.47,0,0,0,10,14.24h4.73A2.31,2.31,0,0,0,16.95,16a2.26,2.26,0,0,0,2.21-2.25A2.11,2.11,0,0,0,17,11.49a2.16,2.16,0,0,0-1.67.81H9.49a1.85,1.85,0,0,0-1.58-.87L7.83,11h8.84C17.33,11,17.46,10.77,17.58,10.45ZM17,12.9a.82.82,0,1,1-.83.82A.83.83,0,0,1,17,12.9Zm-8.31.82a.84.84,0,1,1-.84-.83A.84.84,0,0,1,8.66,13.72Z"/></g></g></svg>