<svg xmlns="http://www.w3.org/2000/svg" viewBox="0 0 42 36"><title>contact</title><g id="Camada_2" data-name="Camada 2"><g id="Capa_1" data-name="Capa 1"><path d="M0,15a11.68,11.68,0,0,0,2.81,7.53A19,19,0,0,0,10.45,28,27.24,27.24,0,0,0,21,30a32.07,32.07,0,0,0,3.4-.19,25.62,25.62,0,0,0,10.78,5.67,17.6,17.6,0,0,0,2.67.52.92.92,0,0,0,.71-.21A1.18,1.18,0,0,0,39,35.1v0a.31.31,0,0,0,0-.28.62.62,0,0,1,0-.23s0-.1-.11-.22l-.14-.21-.16-.2a1.64,1.64,0,0,0-.19-.21l-.73-.81L36.81,32q-.25-.27-.73-.93a9.52,9.52,0,0,1-.76-1.2q-.28-.54-.63-1.38a14.89,14.89,0,0,1-.61-1.78,17.21,17.21,0,0,0,5.8-5.16A11.37,11.37,0,0,0,42,15a11.16,11.16,0,0,0-1.66-5.82,16,16,0,0,0-4.48-4.79,22.81,22.81,0,0,0-6.7-3.2A27.87,27.87,0,0,0,21,0,27.25,27.25,0,0,0,10.45,2,19,19,0,0,0,2.81,7.46,11.69,11.69,0,0,0,0,15Z"/></g></g></svg>