<svg xmlns="http://www.w3.org/2000/svg" xmlns:xlink="http://www.w3.org/1999/xlink" viewBox="0 0 409.6 382.7"><clipPath id="clip-path" transform="translate(0 -0.1)"><rect class="cls-1" width="409.92" height="383.76"/></clipPath></defs><title>email</title><g id="Camada_2" data-name="Camada 2"><g id="Layer_1" data-name="Layer 1"><g class="cls-2"><path d="M409.29,144.73a6.14,6.14,0,0,0-.38-2.08,10.47,10.47,0,0,0-4.12-5.82L346.15,96.07V52.37a10.49,10.49,0,0,0-10.49-10.49H268.21L210.81,2a10.48,10.48,0,0,0-11.94,0L141.1,41.89H73.94A10.49,10.49,0,0,0,63.45,52.37V95.55L4.53,136.28A10.46,10.46,0,0,0,0,144.75c0,.06,0,.12,0,.19L.31,372.33A10.49,10.49,0,0,0,10.8,382.8h0l388.31-.53a10.49,10.49,0,0,0,10.48-10.5Zm-63.14-23.11,33.52,23.29-33.52,23.31ZM204.81,23.36l26.65,18.52H178ZM84.43,62.86H325.17V182.8L244.34,239l-33-25.56-.15-.1a10.49,10.49,0,0,0-12.72.1l-33.19,25.75L84.43,183.26Zm-21,58.19v47.71L28.93,144.91ZM21,164.95l126.93,87.72L21.26,350.93ZM41.5,361.78,205,235,367.83,361.33ZM261.71,252.47l126.62-88,.26,186.45Zm0,0" transform="translate(0 -0.1)"/></g><path d="M275.82,104.82h-142a10.49,10.49,0,1,0,0,21h142a10.49,10.49,0,0,0,0-21Zm0,0" transform="translate(0 -0.1)"/><path d="M275.82,159.37h-142a10.49,10.49,0,1,0,0,21h142a10.49,10.49,0,1,0,0-21Zm0,0" transform="translate(0 -0.1)"/></g></g></svg>