<svg xmlns="http://www.w3.org/2000/svg" viewBox="0 0 243.05 243.05"><title>instagram</title><g id="Camada_2" data-name="Camada 2"><g id="Layer_1" data-name="Layer 1"><path class="cls-1" d="M157.25,49.43H85.81A36.43,36.43,0,0,0,49.43,85.81v71.43a36.42,36.42,0,0,0,36.38,36.38h71.44a36.41,36.41,0,0,0,36.37-36.38V85.81A36.42,36.42,0,0,0,157.25,49.43Zm20.68,107.81a20.72,20.72,0,0,1-20.68,20.69H85.8a20.71,20.71,0,0,1-20.68-20.69V85.8A20.69,20.69,0,0,1,85.8,65.12h71.44A20.7,20.7,0,0,1,177.93,85.8Z"/><path class="cls-1" d="M159.86,74.49a8.79,8.79,0,1,0,8.79,8.79A8.8,8.8,0,0,0,159.86,74.49Z"/><path class="cls-1" d="M121.52,84.39a37.14,37.14,0,1,0,37.14,37.14A37.19,37.19,0,0,0,121.52,84.39Zm0,58.58A21.44,21.44,0,1,1,143,121.52,21.47,21.47,0,0,1,121.52,143Z"/><path class="cls-2" d="M121.53,5A116.53,116.53,0,1,0,238.05,121.53,116.53,116.53,0,0,0,121.53,5Z"/></g></g></svg>