<svg xmlns="http://www.w3.org/2000/svg" viewBox="0 0 16 16"><title>instagram</title><g id="Camada_2" data-name="Camada 2"><g id="Layer_1" data-name="Layer 1"><path class="cls-1" d="M10.38,4.26H5.62A1.38,1.38,0,0,0,4.24,5.64v4.77a1.38,1.38,0,0,0,1.38,1.38h4.77a1.38,1.38,0,0,0,1.38-1.38V5.64A1.38,1.38,0,0,0,10.38,4.26ZM8,10.5A2.48,2.48,0,1,1,10.48,8,2.48,2.48,0,0,1,8,10.5Zm2.56-4.45a.59.59,0,1,1,.59-.59A.59.59,0,0,1,10.56,6.06Z"/><path class="cls-1" d="M8,6.59A1.43,1.43,0,1,0,9.43,8,1.43,1.43,0,0,0,8,6.59Z"/><path class="cls-1" d="M8,0a8,8,0,1,0,8,8A8,8,0,0,0,8,0Zm4.81,10.41a2.43,2.43,0,0,1-2.43,2.43H5.62a2.43,2.43,0,0,1-2.43-2.43V5.64A2.43,2.43,0,0,1,5.62,3.21h4.77a2.43,2.43,0,0,1,2.43,2.43Z"/></g></g></svg>