<svg version="1.1" id="logo-svg" xmlns="http://www.w3.org/2000/svg" xmlns:xlink="http://www.w3.org/1999/xlink" x="0px" y="0px"
	 viewBox="0 0 895.1 549.3" style="enable-background:new 0 0 895.1 549.3;" xml:space="preserve">
<style type="text/css">
	.st0{clip-path:url(#SVGID_2_);}
	.st1{fill:#241F20;}
	.st2{fill:#653609;}
	.st3{fill:#65D1AF;}
	.st4{fill:#FFFFFF;}
</style>
<title>Bom Gosto Enxovais</title>
<g>
	<defs>
		<rect id="SVGID_1_" x="-277.9" y="-240.6" width="1438" height="1087"/>
	</defs>
	<clipPath id="SVGID_2_">
		<use xlink:href="#SVGID_1_"  style="overflow:visible;"/>
	</clipPath>
	<g class="st0">
		<path class="st1" d="M4.5,471.4c-1.2-2.6-2.1-5.4-2.9-8.1c-0.8-2.9-1.3-5.8-1.6-8.8V354l4.5-4.5v79.2c4.1-8.4,10.3-15.4,18.1-20.5
			c8-5.2,17.4-8,26.9-7.8c6.6,0,13.2,1.3,19.3,3.9c11.9,5,21.4,14.5,26.4,26.4c2.6,6.1,3.9,12.7,3.9,19.4
			c0.1,13.2-5.2,25.9-14.5,35.3c-4.5,4.5-9.9,8.1-15.8,10.6c-6.1,2.6-12.7,3.9-19.3,3.9c-9.6,0.1-18.9-2.6-26.9-7.8
			C14.9,486.9,8.6,479.8,4.5,471.4 M17.8,418.4c-4.1,4.1-7.4,9-9.7,14.4c-2.3,5.4-3.5,11.3-3.4,17.2c0,24.7,20,44.8,44.7,44.9
			c0.1,0,0.1,0,0.2,0c5.9,0,11.7-1.1,17.2-3.4c16.7-7,27.5-23.3,27.5-41.4c0-5.9-1.1-11.7-3.4-17.2c-4.6-10.8-13.2-19.4-24-24
			c-5.4-2.3-11.3-3.5-17.2-3.4C37.7,405.4,26.3,410.1,17.8,418.4"/>
		<path class="st1" d="M156,400.2c6.6,0,13.2,1.3,19.3,4c11.9,5.2,21.3,14.6,26.5,26.5c2.7,6.1,4,12.7,4,19.3c0,6.7-1.3,13.3-4,19.4
			c-2.5,5.9-6.2,11.3-10.7,15.9c-4.5,4.5-9.9,8.1-15.8,10.6c-6.1,2.6-12.7,3.9-19.3,3.8c-27.4,0.1-49.7-22-49.8-49.3
			c0-0.1,0-0.3,0-0.4c0-6.6,1.3-13.2,3.9-19.3c2.5-5.9,6.1-11.2,10.6-15.8c4.6-4.5,10-8.2,15.9-10.7
			C142.7,401.5,149.3,400.2,156,400.2 M187.8,481.7c4.1-4.2,7.4-9.2,9.7-14.6c4.6-11,4.6-23.4,0-34.3c-4.5-11-13.2-19.8-24.2-24.2
			c-11-4.6-23.4-4.6-34.3,0c-11,4.5-19.8,13.2-24.2,24.2c-4.6,11-4.6,23.4,0,34.3c4.5,11,13.2,19.8,24.2,24.2
			c11,4.6,23.4,4.6,34.3,0C178.6,489.1,183.5,485.8,187.8,481.7"/>
		<path class="st1" d="M349.4,433c0,0.2,0,0.3,0.1,0.4c0.1,0.1,0.1,0.3,0.1,0.4v65.7h-4.7v-61.4c-0.4-18.5-15.6-33.2-34.1-33
			c-4.5,0-8.9,0.8-13,2.5c-4.1,1.7-7.9,4.2-11,7.4c-1.5,1.5-2.8,3.1-3.9,4.9c-0.3,0.3-0.4,0.5-0.4,0.6v79.2h-4.9v-79.2l-0.6-0.6
			c-1.1-1.8-2.4-3.4-3.8-4.9c-3.1-3.2-6.9-5.7-11-7.4c-4.1-1.7-8.5-2.5-13-2.5c-18.6-0.2-33.9,14.7-34.1,33.3c0,0.3,0,0.6,0,0.8
			v60.5h-4.7v-65.9c0-0.2,0-0.3,0.1-0.4c0.1-0.1,0.1-0.3,0.1-0.4c0.7-4.6,2.2-9,4.5-13.1c7-12.3,20-19.8,34.1-19.7
			c6.1-0.1,12.1,1.4,17.5,4.2c5.2,2.7,9.8,6.4,13.4,11c3.6-4.6,8.2-8.4,13.4-11c5.4-2.8,11.4-4.2,17.5-4.2
			c14.1-0.1,27.2,7.5,34.1,19.7C347.2,424,348.7,428.4,349.4,433"/>
		<path class="st1" d="M458.6,400c6.6,0,13.2,1.3,19.3,4c11.9,5.2,21.3,14.6,26.5,26.5c2.7,6.1,4,12.7,4,19.3v53.4
			c-0.6,6.6-2.4,13.1-5.1,19.1c-3.6,8-9.3,14.8-16.5,19.6c-12.6,8.4-28.7,9.7-42.5,3.5c-5.5-2.5-10.5-6.1-14.6-10.6
			c-8.8-9.7-13.6-22.3-13.5-35.3h4.5c-0.2,11.8,4.2,23.2,12.2,31.8c3.8,4,8.4,7.3,13.5,9.7c10.1,4.6,21.7,4.6,31.8,0
			c5.1-2.3,9.7-5.6,13.5-9.7c6.3-6.9,10.4-15.6,11.6-24.9v-34.8c-4,8.3-10.2,15.2-17.9,20.2c-7.9,5.2-17.2,7.8-26.7,7.7
			c-27.4,0.1-49.7-22-49.8-49.3c0-0.2,0-0.3,0-0.5c0-6.6,1.3-13.2,3.9-19.3c2.5-5.9,6.1-11.2,10.6-15.8c4.6-4.5,10-8.2,15.9-10.7
			C445.3,401.3,451.9,399.9,458.6,400 M490.3,481.5c3.8-3.8,6.9-8.2,9.1-13.1c2.2-4.9,3.5-10.1,3.8-15.4c0.2-1.1,0.2-2.1,0.2-3.2
			V448c0-0.6-0.1-1.2-0.2-1.7c-0.6-10.7-5.2-20.8-12.9-28.3c-4.2-4.2-9.1-7.5-14.6-9.8c-11-4.4-23.3-4.4-34.3,0
			c-11,4.5-19.7,13.3-24.2,24.2c-2.3,5.5-3.4,11.3-3.4,17.3c0,5.9,1.1,11.7,3.4,17.2c4.5,11,13.2,19.8,24.2,24.2
			c11,4.6,23.4,4.6,34.3,0C481.2,488.9,486.1,485.6,490.3,481.5"/>
		<path class="st1" d="M565.5,400.2c6.6,0,13.2,1.3,19.3,4c11.9,5.2,21.3,14.6,26.5,26.5c2.7,6.1,4,12.7,4,19.3
			c0,6.7-1.3,13.3-4,19.4c-2.5,5.9-6.2,11.3-10.7,15.9c-4.5,4.5-9.9,8.1-15.8,10.6c-6.1,2.6-12.7,3.9-19.3,3.9
			c-27.4,0.1-49.7-21.9-49.8-49.3c0-0.2,0-0.3,0-0.5c0-6.6,1.3-13.2,3.9-19.3c2.5-5.9,6.1-11.2,10.6-15.8c4.6-4.6,9.9-8.2,15.9-10.8
			C552.1,401.5,558.7,400.1,565.5,400.2 M597.2,481.7c4.1-4.2,7.4-9.2,9.7-14.6c4.6-11,4.6-23.4,0-34.3c-4.5-11-13.2-19.8-24.2-24.2
			c-11-4.6-23.4-4.6-34.3,0c-11,4.5-19.8,13.2-24.2,24.3c-4.6,11-4.6,23.4,0,34.3c4.5,11,13.2,19.8,24.2,24.2
			c11,4.6,23.4,4.6,34.3,0C588,489.1,593,485.8,597.2,481.7"/>
		<path class="st1" d="M718.6,453.6c-0.1,0.9-0.2,1.7-0.3,2.6c-0.7,5.5-2.3,10.8-4.7,15.8c-2.3,4.8-5.5,9.2-9.2,13l-1.3,1.2
			l-1.1,1.1c-0.1,0-0.2,0-0.2,0.1s-0.1,0.1-0.2,0.1l-0.9,0.9c-0.2,0-0.2,0-0.2,0.1s-0.1,0.1-0.2,0.1l-0.6,0.6
			c-0.2,0-0.4,0.1-0.7,0.4s-0.2,0.2-0.3,0.2s-0.2,0.1-0.3,0.2c-0.3,0.3-0.5,0.4-0.7,0.4l-0.6,0.6c-0.2,0-0.4,0.1-0.7,0.4
			s-0.2,0.2-0.3,0.2s-0.2,0.1-0.3,0.2l-0.9,0.4c-0.1,0.1-0.3,0.2-0.4,0.2c-0.2,0.1-0.4,0.2-0.5,0.3c-0.2,0.1-0.3,0.2-0.5,0.3
			c-0.1,0.1-0.3,0.2-0.4,0.2c-0.4,0.2-0.7,0.4-1.1,0.6c-0.1,0-0.2,0-0.2,0.1s-0.1,0.1-0.2,0.1l-1.3,0.6h-0.2l-1.3,0.6h-0.2l-1.3,0.6
			h-0.2l-0.9,0.4c-0.2,0-0.4,0-0.5,0.1c-0.1,0.1-0.2,0.1-0.3,0.1l-0.2,0.2c-0.1,0-0.3,0-0.4,0.1s-0.3,0.1-0.4,0.1h-0.2
			c-0.2,0.2-0.4,0.2-0.6,0.2c-0.1,0-0.2,0.1-0.2,0.2c0,0,0,0,0,0.1c-0.3,0-0.6,0-0.9,0.2H682c-0.1,0-0.2,0-0.3,0.1
			c-0.2,0.1-0.4,0.1-0.5,0.1h-0.2c-0.3,0.2-0.6,0.2-0.9,0.2c-0.3,0.2-0.7,0.2-1.1,0.2c-0.4,0.2-0.8,0.2-1.3,0.2v0.2h-1.3
			c-0.3,0.2-0.7,0.2-1.1,0.2h-0.2c-0.1,0-0.3,0-0.4,0.1c-0.2,0.1-0.4,0.1-0.6,0.1h-1.5c-0.3,0.2-0.6,0.2-0.9,0.2h-6.2
			c-0.5-0.2-1-0.2-1.5-0.2h-0.4c-0.3,0-0.5,0-0.5-0.1c-0.1-0.1-0.2-0.1-0.3-0.1H662c-0.2,0-0.4,0-0.7-0.1c-0.2-0.1-0.4-0.1-0.6-0.1
			c-0.2,0-0.5-0.1-0.7-0.2h-0.9c-0.1,0-0.2,0-0.3-0.1c-0.1-0.1-0.2-0.1-0.3-0.1c-0.2,0-0.5-0.1-0.7-0.2c-0.2,0-0.4,0-0.6-0.1
			c-0.2-0.1-0.4-0.1-0.6-0.1c-0.3,0-0.4-0.1-0.4-0.2c-0.3,0-0.6,0-0.9-0.2h-0.4c-0.5-0.3-1-0.4-1.5-0.5c-0.5-0.1-1-0.3-1.5-0.5h-0.2
			c-0.4-0.3-0.9-0.5-1.4-0.6c-0.5-0.1-1-0.4-1.4-0.6h-0.2c-9.5-4-17.5-11-22.5-20h5.9c4.9,7.1,11.7,12.7,19.7,15.9
			c11,4.6,23.4,4.6,34.3,0c5.4-2.3,10.4-5.6,14.6-9.7c3.4-3.5,6.2-7.5,8.4-11.8c2.2-4.3,3.6-9,4.3-13.7h-93.8
			c-0.2-0.9-0.2-1.7-0.3-2.6s-0.1-1.6-0.1-2.4v-2.6c0-0.9,0-1.7,0.1-2.5s0.2-1.6,0.3-2.5c0.7-5.5,2.3-10.8,4.7-15.7
			c2.3-4.8,5.5-9.2,9.2-13v-0.2c0.5-0.3,0.9-0.7,1.3-1.1v-0.2c0.4-0.2,0.8-0.5,1.1-0.9c0.1-0.1,0.3-0.2,0.4-0.2
			c0.1-0.1,0.2-0.3,0.3-0.4c0.1-0.2,0.3-0.3,0.5-0.4c0.1,0,0.2,0,0.2-0.1s0.1-0.1,0.2-0.1l0.7-0.6c0.1-0.1,0.2-0.2,0.3-0.2
			s0.2-0.1,0.3-0.2l0.7-0.6c0.1,0,0.3-0.1,0.7-0.4c0.1,0,0.4-0.1,0.6-0.4s0.2-0.2,0.3-0.2s0.2-0.1,0.3-0.2s0.2-0.2,0.3-0.2
			s0.2-0.1,0.3-0.2l0.9-0.4l0.4-0.4c0.4-0.2,0.7-0.4,1.1-0.6c0.2,0,0.3-0.1,0.4-0.2c0.2-0.1,0.4-0.2,0.7-0.2c0.2,0,0.3-0.1,0.4-0.2
			c0.1-0.1,0.3-0.2,0.4-0.2l1.3-0.6l0.2-0.2c0.2-0.1,0.4-0.2,0.7-0.2c0.2,0,0.4-0.1,0.6-0.2l0.2-0.2c0.4-0.2,0.8-0.4,1.3-0.4h0.2
			c0.2-0.3,0.5-0.4,0.9-0.4l0.9-0.4h0.2c0.1,0,0.3,0,0.4-0.1s0.3-0.1,0.4-0.1h0.2c0.1-0.1,0.2-0.2,0.3-0.2s0.2-0.1,0.3-0.2h0.2
			c0.2,0,0.4,0,0.5-0.1c0.1-0.1,0.2-0.1,0.3-0.1h0.2c0.3-0.2,0.6-0.2,0.9-0.2h0.2c0.3-0.2,0.6-0.2,0.9-0.2v-0.2c0.4,0,0.7,0,1.1-0.2
			c0.4,0,0.9,0,1.3-0.2c0.4,0,0.7,0,1.1-0.2h1.5c0.3-0.2,0.7-0.3,1.1-0.2h0.2c0.3,0,0.6,0,0.9-0.2h7.5c0.3,0,0.5,0,0.8,0.1
			c0.2,0.1,0.5,0.1,0.8,0.1h0.4c0.3,0,0.6,0,0.9,0.2h0.7c0.2,0,0.4,0,0.7,0.1c0.2,0.1,0.4,0.1,0.6,0.1h0.7c0.3,0.2,0.6,0.2,0.9,0.2
			c0.2,0,0.5,0.1,0.7,0.2h0.7c0.2,0.1,0.4,0.2,0.6,0.2c0.2,0,0.4,0.1,0.7,0.2h0.4c0.3,0.1,0.6,0.2,0.9,0.2c0.1,0.1,0.3,0.2,0.4,0.2
			c0.6,0.1,1.1,0.3,1.5,0.4l1.3,0.4c0.1,0,0.2,0,0.2,0.1s0.1,0.1,0.2,0.1c0.9,0.3,1.8,0.6,2.8,1.1h0.2c9.4,4.2,17.3,11.2,22.5,20.2
			h-5.8c-1.5-2.2-3.3-4.3-5.2-6.2c-4.2-4.1-9.2-7.4-14.6-9.7c-11-4.6-23.4-4.6-34.3,0c-5.4,2.3-10.4,5.6-14.6,9.7
			c-3.4,3.5-6.2,7.5-8.4,11.8c-2.2,4.3-3.6,9-4.3,13.7c-0.1,0.9-0.2,1.7-0.3,2.5s-0.1,1.6-0.1,2.5v2.6h94.6
			C718.8,452,718.8,452.8,718.6,453.6"/>
		<polygon class="st1" points="786.7,405.8 758.2,405.8 758.2,499.8 753.4,499.8 753.4,405.8 728.8,405.8 723.8,400.8 753.4,400.8 
			753.4,373.1 758.2,368.4 758.2,400.8 791.6,400.8 		"/>
		<path class="st1" d="M845.3,400.2c6.6,0,13.2,1.3,19.3,4c11.9,5.2,21.3,14.6,26.5,26.5c2.7,6.1,4,12.7,4,19.3
			c0,6.7-1.3,13.3-4,19.4c-2.5,5.9-6.2,11.3-10.7,15.9c-4.5,4.5-9.9,8.1-15.8,10.6c-6.1,2.6-12.7,3.9-19.3,3.9
			c-27.4,0.1-49.7-21.9-49.8-49.3c0-0.2,0-0.3,0-0.5c0-6.6,1.3-13.2,3.9-19.3c2.5-5.9,6.1-11.3,10.6-15.8c4.6-4.5,10-8.2,15.9-10.7
			C832,401.5,838.6,400.1,845.3,400.2 M877.1,481.7c4.1-4.2,7.4-9.2,9.7-14.6c4.6-11,4.6-23.4,0-34.3c-4.5-11-13.2-19.8-24.2-24.2
			c-11-4.6-23.4-4.6-34.3,0c-11,4.5-19.8,13.2-24.2,24.2c-4.6,11-4.6,23.4,0,34.3c4.5,11,13.2,19.8,24.2,24.2
			c11,4.6,23.4,4.6,34.3,0C867.9,489.1,872.9,485.8,877.1,481.7"/>
		<path class="st2" d="M534.7,533.5v0.4c0,1.8,0.4,3.6,1.1,5.3c1.4,3.4,4.1,6.1,7.5,7.5c3.4,1.4,7.2,1.4,10.6,0
			c1.7-0.7,3.2-1.7,4.5-3c0.6-0.6,1.1-1.2,1.6-1.9h1.8c-1.3,2.3-3.2,4.1-5.5,5.4c-2.3,1.4-5,2.1-7.7,2c-8.4,0-15.3-6.8-15.4-15.2
			c0-0.1,0-0.1,0-0.2v-0.4c0-0.3,0-0.5,0-0.8s0.1-0.5,0.1-0.8c0.2-1.9,0.8-3.7,1.7-5.3c1.7-3.3,4.6-5.8,8-7.1c1.8-0.7,3.6-1,5.5-1
			c1.9,0,3.8,0.3,5.6,1c1.7,0.7,3.3,1.6,4.6,2.8c1.4,1.2,2.5,2.7,3.3,4.3c0.9,1.6,1.4,3.5,1.7,5.3c0,0.3,0.1,0.5,0.1,0.8
			s0,0.5,0,0.8L534.7,533.5L534.7,533.5z M538.7,524.1c-1,1.1-1.9,2.3-2.6,3.7c-0.7,1.3-1.1,2.8-1.3,4.2h27.4
			c-0.2-1.5-0.7-2.9-1.3-4.2c-0.7-1.3-1.5-2.6-2.6-3.7c-1.3-1.3-2.8-2.3-4.5-3c-3.4-1.4-7.2-1.4-10.6,0
			C541.5,521.8,539.9,522.8,538.7,524.1"/>
		<path class="st2" d="M609.5,528.7c0,0.1,0,0.2,0.1,0.3v20.3h-1.5v-18.9c0-1.3-0.3-2.7-0.8-3.9c-2.3-5.4-8.5-7.8-13.8-5.5
			c-3.9,1.7-6.4,5.5-6.4,9.7v18.7h-1.5v-20.3c0.1-0.1,0.1-0.2,0.1-0.3c0.2-1.4,0.7-2.8,1.4-4c1.4-2.5,3.6-4.4,6.3-5.3
			c4.1-1.5,8.8-0.7,12.2,2.1c1.1,0.9,2,2,2.7,3.2C608.8,526,609.3,527.3,609.5,528.7"/>
		<path class="st2" d="M660.8,549.3c-1.6,0-3.3-0.3-4.8-0.8c-1.5-0.5-2.9-1.2-4.2-2.2c-1.3-0.9-2.4-2-3.3-3.3
			c-1-1.3-1.7-2.7-2.2-4.2c-1,3-3,5.7-5.5,7.6c-1.3,0.9-2.7,1.7-4.2,2.2c-1.6,0.5-3.2,0.8-4.8,0.8l1.6-1.6
			c6.7-0.8,11.8-6.2,12.2-12.9v-1.7c-0.1-1.7-0.5-3.3-1.2-4.8c-0.7-1.5-1.6-2.9-2.8-4.1c-2.2-2.2-5.1-3.7-8.2-4l-1.6-1.6
			c1.6,0,3.3,0.3,4.8,0.8c1.5,0.5,2.9,1.2,4.2,2.2c2.5,1.9,4.5,4.5,5.5,7.5c0.5-1.5,1.3-2.9,2.2-4.2c0.9-1.3,2-2.4,3.3-3.3
			c1.3-0.9,2.7-1.7,4.2-2.2c1.6-0.5,3.2-0.8,4.8-0.8l-1.6,1.6c-3.1,0.4-6,1.8-8.2,4c-1.2,1.2-2.1,2.6-2.8,4.1
			c-0.7,1.5-1.1,3.2-1.1,4.8v1.7c0.4,6.7,5.5,12.2,12.2,12.9L660.8,549.3z"/>
		<path class="st2" d="M697.8,518.6c2.1,0,4.1,0.4,6,1.2c3.7,1.6,6.6,4.5,8.2,8.2c0.8,1.9,1.2,3.9,1.2,6c0,2.1-0.4,4.1-1.2,6
			c-0.8,1.8-1.9,3.5-3.3,4.9c-1.4,1.4-3.1,2.5-4.9,3.3c-1.9,0.8-3.9,1.2-6,1.2c-4.1,0-8-1.6-10.9-4.5c-2.9-2.9-4.5-6.8-4.5-10.9
			c0-2.1,0.4-4.1,1.2-6c0.8-1.8,1.9-3.5,3.3-4.9c1.4-1.4,3.1-2.5,4.9-3.3C693.7,519,695.7,518.6,697.8,518.6 M707.6,543.8
			c1.3-1.3,2.3-2.8,3-4.5c1.4-3.4,1.4-7.2,0-10.6c-1.4-3.4-4.1-6.1-7.5-7.5c-3.4-1.4-7.2-1.4-10.6,0c-3.4,1.4-6.1,4.1-7.5,7.5
			c-1.4,3.4-1.4,7.2,0,10.6c1.4,3.4,4.1,6.1,7.5,7.5c3.4,1.4,7.2,1.4,10.6,0C704.8,546.1,706.3,545,707.6,543.8"/>
		<polygon class="st2" points="766.5,518.6 751.5,549.3 751,549.3 749.8,549.3 749.3,549.3 734.4,518.6 737.7,521.9 750.4,548.2 
			763.2,521.9 		"/>
		<path class="st2" d="M813.9,531.2c0,0.2,0.1,0.5,0.1,0.7c0,0.2,0,0.5,0,0.7v16.6h-1.5v-8.6c-1.3,2.5-3.2,4.7-5.6,6.2
			c-2.4,1.6-5.3,2.4-8.2,2.4c-8.5,0-15.3-6.8-15.4-15.3c0,0,0-0.1,0-0.1c0-2.1,0.4-4.1,1.2-6c0.8-1.8,1.9-3.5,3.3-4.9
			c1.4-1.4,3.1-2.5,4.9-3.3c1.9-0.8,3.9-1.2,6-1.2c1.8,0,3.7,0.3,5.4,1c1.7,0.6,3.2,1.5,4.6,2.7c1.3,1.1,2.5,2.5,3.4,4
			C813,527.7,813.6,529.4,813.9,531.2 M808.5,543.6c2.3-2.3,3.7-5.4,4-8.7c0-0.2,0.1-0.4,0.1-0.5v-1.2c0-0.2,0-0.4-0.1-0.6
			c-0.2-3.3-1.7-6.3-4-8.6c-1.3-1.3-2.8-2.3-4.5-3c-3.4-1.4-7.2-1.4-10.6,0c-1.7,0.7-3.2,1.7-4.5,3c-1.3,1.3-2.3,2.8-3,4.5
			c-1.4,3.4-1.4,7.2,0,10.6c0.7,1.7,1.7,3.2,3,4.5c1.3,1.3,2.8,2.3,4.5,3c3.4,1.4,7.2,1.4,10.6,0
			C805.7,545.9,807.2,544.9,808.5,543.6"/>
		<path class="st2" d="M837.1,519.7l-1.5,1.5v-2.6h1.5V519.7z M837.1,549.3V521l-1.5,1.5v26.8L837.1,549.3z"/>
		<path class="st2" d="M890.8,535.1c0,0.3-0.1,0.5-0.1,0.8c-0.2,1.7-0.7,3.3-1.5,4.9c-0.7,1.5-1.7,2.8-2.8,4l-0.4,0.4l-0.3,0.3h-0.1
			c0,0,0,0-0.1,0l-0.3,0.3h-0.1c0,0,0,0-0.1,0l-0.2,0.2c0,0-0.1,0-0.2,0.1s-0.1,0.1-0.1,0.1s0,0-0.1,0.1s-0.2,0.1-0.2,0.1l-0.2,0.2
			c0,0-0.1,0-0.2,0.1c0,0-0.1,0.1-0.1,0.1c0,0-0.1,0-0.1,0.1l-0.3,0.1c0,0-0.1,0.1-0.1,0.1c-0.1,0-0.1,0.1-0.2,0.1
			c0,0-0.1,0.1-0.2,0.1c0,0-0.1,0.1-0.1,0.1c-0.1,0.1-0.2,0.1-0.3,0.2h-0.1c0,0,0,0-0.1,0l-0.4,0.2h-0.1l-0.4,0.2h-0.1l-0.4,0.2h0
			l-0.3,0.1c-0.1,0-0.1,0-0.2,0c0,0-0.1,0-0.1,0l-0.1,0.1c0,0-0.1,0-0.1,0c0,0-0.1,0-0.1,0H880c-0.1,0-0.1,0.1-0.2,0.1
			c0,0-0.1,0-0.1,0c0,0,0,0,0,0c-0.1,0-0.2,0-0.3,0.1h-0.1c0,0-0.1,0-0.1,0c-0.1,0-0.1,0-0.2,0h-0.1c-0.1,0.1-0.2,0.1-0.3,0.1
			c-0.1,0-0.2,0.1-0.3,0.1c-0.1,0.1-0.3,0.1-0.4,0.1v0.1h-0.4c-0.1,0-0.2,0.1-0.3,0.1h-0.1c0,0-0.1,0-0.1,0c-0.1,0-0.1,0-0.2,0h-0.5
			c0,0-0.1,0.1-0.3,0.1h-1.9c-0.1-0.1-0.3-0.1-0.5-0.1h-0.1c-0.1,0-0.2,0-0.2,0c0,0-0.1,0-0.1,0h-0.2c-0.1,0-0.1,0-0.2,0
			c-0.1,0-0.1,0-0.2,0c-0.1,0-0.1,0-0.2-0.1h-0.3c0,0-0.1,0-0.1,0c0,0-0.1,0-0.1,0c-0.1,0-0.1,0-0.2-0.1c-0.1,0-0.1,0-0.2,0
			c-0.1,0-0.1,0-0.2,0c-0.1,0-0.1,0-0.1-0.1c-0.1,0-0.2,0-0.3-0.1h-0.1c-0.1-0.1-0.3-0.1-0.5-0.2c-0.2,0-0.3-0.1-0.5-0.2h-0.1
			c-0.1-0.1-0.3-0.2-0.4-0.2c-0.2,0-0.3-0.1-0.4-0.2h-0.1c-3-1.2-5.4-3.4-7-6.2h1.9c0.5,0.7,1,1.3,1.6,1.9c1.3,1.3,2.8,2.3,4.5,3
			c3.4,1.4,7.2,1.4,10.6,0c1.7-0.7,3.2-1.7,4.5-3c1-1.1,1.9-2.3,2.6-3.6c0.7-1.3,1.1-2.8,1.3-4.2h-29c0-0.3-0.1-0.5-0.1-0.8
			s0-0.5,0-0.7v-0.8c0-0.3,0-0.5,0-0.8s0-0.5,0.1-0.8c0.2-1.7,0.7-3.3,1.5-4.9c0.7-1.5,1.7-2.8,2.8-4v-0.1c0.1-0.1,0.3-0.2,0.4-0.3
			v-0.1c0.1-0.1,0.2-0.2,0.3-0.3c0,0,0.1-0.1,0.1-0.1c0,0,0.1-0.1,0.1-0.1c0,0,0.1-0.1,0.2-0.1s0.1,0,0.1,0s0,0,0.1,0l0.2-0.2
			c0,0,0.1-0.1,0.1-0.1l0.1-0.1l0.2-0.2c0.1,0,0.1-0.1,0.2-0.1c0,0,0.1,0,0.2-0.1s0.1-0.1,0.1-0.1s0.1,0,0.1-0.1s0.1-0.1,0.1-0.1
			s0,0,0.1-0.1l0.3-0.1l0.1-0.1c0.1-0.1,0.2-0.1,0.3-0.2c0,0,0.1,0,0.1-0.1c0.1,0,0.1-0.1,0.2-0.1c0.1,0,0.1,0,0.1-0.1
			c0,0,0.1-0.1,0.1-0.1l0.4-0.2l0.1-0.1c0.1,0,0.1-0.1,0.2-0.1c0.1,0,0.1,0,0.2-0.1l0.1-0.1c0.1-0.1,0.3-0.1,0.4-0.1h0.1
			c0.1-0.1,0.2-0.1,0.3-0.1l0.3-0.1h0.1h0.1c0,0,0.1,0,0.1,0h0.1c0,0,0.1-0.1,0.1-0.1s0,0,0.1-0.1h0.1c0.1,0,0.2,0,0.2,0
			c0,0,0.1,0,0.1,0h0.1c0.1-0.1,0.2-0.1,0.3-0.1h0.1c0.1-0.1,0.2-0.1,0.3,0v-0.1c0.1,0,0.2,0,0.3-0.1c0.1,0,0.3,0,0.4-0.1
			c0.2,0,0.3,0,0.3-0.1h0.5c0.1-0.1,0.2-0.1,0.3-0.1h0.1c0.1,0,0.2,0,0.3-0.1h2.3c0.1,0,0.2,0,0.2,0s0.2,0,0.2,0h0.1
			c0.1,0,0.2,0,0.3,0.1h0.2c0.1,0,0.1,0,0.2,0c0.1,0,0.1,0,0.2,0h0.2c0.1,0.1,0.2,0.1,0.3,0.1c0.1,0,0.1,0,0.2,0.1h0.2
			c0.1,0,0.1,0.1,0.2,0.1c0.1,0,0.1,0,0.2,0.1h0.1c0.1,0,0.2,0.1,0.3,0.1c0,0,0.1,0.1,0.1,0.1l0.5,0.1l0.4,0.1h0.1c0,0,0,0,0.1,0
			c0.3,0.1,0.6,0.2,0.9,0.3h0.1c2.9,1.3,5.4,3.5,7,6.2h-1.9c-0.5-0.7-1-1.3-1.6-1.9c-1.3-1.3-2.8-2.3-4.5-3c-3.4-1.4-7.2-1.4-10.6,0
			c-1.7,0.7-3.2,1.7-4.5,3c-1.1,1.1-1.9,2.4-2.6,3.8c-0.7,1.3-1.1,2.8-1.3,4.2c0,0.3-0.1,0.5-0.1,0.8c0,0.3,0,0.5,0,0.8v0.8h29.2
			C890.8,534.6,890.8,534.8,890.8,535.1"/>
		<path class="st3" d="M613.3,209.4c0,91.6-74.2,165.8-165.8,165.8S281.7,301,281.7,209.4S356,43.6,447.5,43.6c0,0,0,0,0,0
			C539.1,43.6,613.3,117.8,613.3,209.4"/>
		<path class="st4" d="M447.7,359c-4.1,0-7.4-3.3-7.4-7.4s3.3-7.4,7.4-7.4c14.1,0,28.2-2.2,41.6-6.6c3.9-1.3,8.1,0.8,9.4,4.7
			s-0.8,8.1-4.7,9.4c0,0,0,0,0,0C479,356.6,463.4,359,447.7,359L447.7,359z M403.7,352.2c-0.8,0-1.5-0.1-2.3-0.4
			c-14.9-4.8-29-12-41.7-21.2c-3.2-2.6-3.7-7.3-1.1-10.5c2.4-3,6.6-3.6,9.8-1.5c11.4,8.3,24.1,14.7,37.6,19.1c3.9,1.3,6,5.5,4.8,9.4
			C409.8,350.1,406.9,352.2,403.7,352.2 M531.2,331.9c-4.1,0-7.4-3.3-7.4-7.4c0-2.4,1.1-4.6,3.1-6c11.4-8.3,21.5-18.4,29.8-29.8
			c2.5-3.2,7.2-3.8,10.4-1.3c3.1,2.4,3.8,6.8,1.6,10c-9.2,12.7-20.4,23.9-33.1,33.1C534.3,331.4,532.8,331.9,531.2,331.9
			 M332.6,300.6c-2.4,0-4.6-1.1-6-3c-9.3-12.7-16.5-26.7-21.4-41.7c-1.3-3.9,0.9-8.1,4.8-9.4s8.1,0.9,9.4,4.8
			c4.4,13.4,10.9,26.1,19.2,37.5c2.4,3.3,1.7,8-1.6,10.4C335.7,300.1,334.1,300.6,332.6,300.6 M582.9,260.8c-4.1,0-7.4-3.4-7.4-7.5
			c0-0.8,0.1-1.5,0.4-2.3c4.4-13.5,6.6-27.5,6.6-41.7v-0.6c0-4.1,3.3-7.4,7.4-7.4s7.4,3.3,7.4,7.4l0,0v0.6c0,15.7-2.4,31.3-7.2,46.2
			C589,258.7,586.2,260.7,582.9,260.8 M305.3,216.9c-4,0.1-7.4-3.2-7.4-7.2c0,0,0-0.1,0-0.1h7.4l-7.4-0.1c0-15.7,2.4-31.2,7.1-46.1
			c1.3-3.9,5.5-6.1,9.4-4.8c3.9,1.3,6.1,5.5,4.8,9.4l0,0c-4.3,13.4-6.5,27.3-6.5,41.4C312.7,213.5,309.4,216.9,305.3,216.9
			 M582.7,172.4c-3.2,0-6.1-2.1-7.1-5.1c-4.4-13.4-10.9-26.1-19.3-37.5c-2.4-3.3-1.7-8,1.6-10.4c3.3-2.4,8-1.7,10.4,1.6l0,0
			c9.3,12.7,16.5,26.7,21.4,41.6c1.3,3.9-0.8,8.1-4.7,9.4C584.3,172.2,583.5,172.3,582.7,172.4 M332.2,133.4c-4.1,0-7.4-3.3-7.4-7.4
			c0-1.6,0.5-3.1,1.4-4.3c9.2-12.7,20.3-23.9,33-33.2c3.3-2.4,8-1.7,10.4,1.6c2.4,3.3,1.7,8-1.6,10.4c-11.4,8.3-21.5,18.4-29.8,29.9
			C336.9,132.3,334.6,133.4,332.2,133.4 M530.8,101.4c-1.6,0-3.1-0.5-4.3-1.4c-11.5-8.3-24.2-14.7-37.6-19c-3.9-1.3-6.1-5.4-4.8-9.4
			c1.3-3.9,5.4-6.1,9.4-4.8l0,0c15,4.8,29.1,11.9,41.8,21.1c3.3,2.4,4.1,7,1.7,10.4C535.5,100.3,533.2,101.5,530.8,101.4
			 M403.2,81.6c-4.1,0-7.4-3.3-7.5-7.4c0-3.2,2.1-6.1,5.1-7.1c14.9-4.9,30.5-7.4,46.2-7.4l0,0c4.1,0,7.4,3.3,7.4,7.4
			s-3.3,7.4-7.4,7.4c-14.1,0-28.2,2.3-41.6,6.7C404.7,81.5,403.9,81.6,403.2,81.6"/>
		<path class="st1" d="M540.5,11c-1,3.8-2,7.8-3.2,11.8c-2,6.8-3.9,13.6-6.2,20.2c-1.6,4.6-3.7,9.1-5.5,13.6
			c-5.6,13.7-11.5,27.2-16.7,41c-3.7,9.8-6.5,20-9.7,30c-2,6.1-4,12.1-6,18.2c-1.9,5.8-3.7,11.5-5.6,17.2c-3,9.4-6,18.8-9,28.2
			c-2.6,8.2-5,16.5-7.6,24.7c-3.6,11.5-7.2,23.1-10.8,34.6c-1.8,5.9-3.6,11.8-5.4,17.7c-3.3,11-7,21.9-11.3,32.5
			c-3.1,7.6-5.9,15.4-8.8,23.1c-0.8,2.1-2.4,2.6-4.2,1.3c-0.5-0.5-0.8-1.2-0.7-1.9c2.7-10.2,5.4-20.4,8.1-30.5
			c1.7-6.4,3.3-12.9,5.1-19.3c1.4-5,3-10,4.5-14.9c2.2-7,4.4-13.9,6.6-20.9c3.3-10.7,6.7-21.3,10.1-32c4-12.7,7.9-25.4,11.8-38.1
			c1.5-4.7,3-9.3,4.5-14c3.2-10.2,6.3-20.5,9.5-30.7c2.3-7.4,4.7-14.7,6.9-22.1c3.1-10.9,6.2-21.7,9.1-32.7c1-3.6,1.5-7.2,2.3-10.9
			c1.1-5.1,2.1-10.3,3.4-15.4c1.7-6.7,3.2-13.4,5.5-19.9c2.4-6.3,5.1-12.4,8.1-18.3c1.4-3,6.2-4.4,10.1-3.5c2.7,0.6,4.8,3.5,5.2,7.1
			C540.6,8.4,540.5,9.6,540.5,11 M513.5,56.5c0.1,0,0.2,0,0.2,0.1c-0.2,0.8-0.2,1.5-0.2,2.3c0.1,0.7,0.5,1.4,1,1.9
			c0.2,0.2,1.2-0.2,1.7-0.6c0.6-0.6,1.1-1.2,1.4-2c2.1-5.7,4.1-11.3,6.1-17c2.8-8.3,5.7-16.5,8.4-24.8c0.7-2,1.2-4,1.4-6.1
			c0-0.8-1-1.9-1.8-2.5c-0.2-0.2-1.6,0.8-2,1.4c-0.7,1.2-1.4,2.4-1.8,3.8c-3.7,10.6-7.4,21.1-11,31.7
			C515.6,48.6,514.6,52.6,513.5,56.5"/>
		<path class="st4" d="M367.9,249.1c-0.3-4.2-0.6-8.4-0.8-12.5c-0.2-4.1-0.4-8.2-0.7-12.4c-0.4-7.2-0.9-14.4-1.3-21.4
			c-0.4-7-1.1-14.2-1.8-21.5c-0.6,0.8-1.5,1.5-2.4,1.8c-1.4,0.5-2.8,0.7-4.3,0.7c-1.1,0-2.3-0.1-3.6-0.2c-1.2-0.1-2.4-0.4-3.5-1
			c-1.1-0.6-2-1.5-2.7-2.6c-0.8-1.5-1.2-3.1-1.1-4.8v-0.2c0-0.1,0-0.2,0.1-0.2s0.1,0,0.1-0.2c0.1-0.2,0.2-0.5,0.2-0.8v-0.8
			c2.5-2.1,4.9-4.3,7.2-6.7c1.9-2,3.5-3.7,4.7-5c2.1-2.4,4.4-4.6,6.9-6.6c2.4-1.8,6-3.6,10.9-5.2c2.3-1,4.9-2.1,7.6-3.2
			c2.7-1.1,5.6-2.1,8.6-3c3-0.9,6.1-1.6,9.2-2.2c3-0.6,6.1-0.9,9.2-0.9c4.7-0.1,9.3,1,13.4,3.3c3.9,2.2,6.8,6.1,8.7,11.9
			c-0.4,3.4-1.4,6.7-2.8,9.9c-1.6,3.7-3.6,7.3-5.8,10.8c-2.3,3.7-4.8,7.2-7.5,10.6c-2.7,3.4-5.3,6.6-7.8,9.3c4.1,0,8.6,0.2,13.6,0.5
			c4.7,0.3,9.4,1.2,14,2.6c4.1,1.3,7.8,3.6,10.8,6.6c2.9,3,4.3,7.2,4.3,12.5c0,6.7-1.8,13.2-5.2,19c-3.4,6-7.9,11.4-13.2,15.9
			c-5.3,4.6-11.4,8.2-17.9,10.9c-6,2.6-12.5,4-19,4.1c-3,0-6-0.4-8.9-1.2c-2.9-0.8-5.6-1.9-8.2-3.5c-2.5-1.6-4.7-3.5-6.6-5.8
			c-2-2.5-3.4-5.3-4.2-8.3L367.9,249.1z M415.3,155.1c-0.9-1-2.6-1.5-5.2-1.5c-3,0.1-6,0.5-8.9,1.3c-3.3,0.9-6.5,1.9-9.7,3.2
			c-2.9,1.1-5.8,2.4-8.6,3.9c-2,1-3.9,2.2-5.7,3.6c0.6,6,1,12,1.3,17.9c0.3,6,0.8,11.9,1.3,17.9c2.6-0.4,5-1.5,7.1-3.1
			c2.9-2.1,5.6-4.4,8.1-6.9c2.9-2.9,5.6-6,8.1-9.3c2.6-3.4,4.9-6.7,7-10c1.9-3,3.6-6.1,5-9.4c1.1-2.2,1.7-4.6,1.9-7.1
			c-0.2,0.2-0.4,0.3-0.5,0.3L415.3,155.1z M380.1,202c0-0.1,0-0.2-0.1-0.2c-0.1-0.1-0.1-0.2-0.1-0.2h-0.5c0.1,0.1,0.2,0.2,0.3,0.2
			C379.8,201.8,380,201.9,380.1,202 M382.7,248.7v-1c-0.3-0.3-0.5-0.6-0.7-1L382.7,248.7z M382.7,247.7c1.7,2,3.8,3.6,6.3,4.6
			c2.5,1,5.1,1.4,7.8,1.4c4.7-0.1,9.3-1.1,13.6-2.9c4.7-1.9,9-4.5,12.9-7.6c3.8-3,7-6.5,9.7-10.5c2.4-3.4,3.7-7.5,3.8-11.7
			c0.1-2.5-0.7-5-2.3-6.9c-1.5-1.8-3.5-3.1-5.7-3.9c-2.4-0.9-4.9-1.5-7.5-1.8c-2.6-0.3-5.2-0.4-7.8-0.4c-1.3,0-3.7,0.1-7.1,0.3
			c-3.5,0.2-6.9,0.7-10.4,1.5c-3.2,0.7-6.4,1.7-9.4,3.2c-2.7,1.3-4.1,3.2-4.1,5.5L382.7,247.7z"/>
		<path class="st4" d="M459,225.7c0.1-4.1,0.6-8.2,1.4-12.3c0.9-5.3,2.3-11,4-17.3s3.8-12.6,6.2-18.9c2.3-6,5.1-11.9,8.4-17.4
			c2.8-4.8,6.2-9.1,10.3-12.8c3.7-3.3,7.6-5,11.8-5h-0.3c1.3-0.1,2.7-0.1,4-0.1c1.5,0.1,2.9,0.4,4.2,1.1c1.5,0.8,2.8,1.9,3.8,3.2
			c1.3,1.8,2.3,3.8,2.8,6c0,1.3-0.4,2.5-1.1,3.6c-0.7,1.1-1.7,1.9-2.8,2.6c-1.2,0.7-2.4,1.2-3.8,1.4c-1.3,0.3-2.7,0.3-4.1,0.1
			c-0.3-0.5-0.6-1-0.9-1.4c-0.3-0.4-0.7-0.8-1.2-0.9c-1.7-0.8-3.6-0.3-5.7,1.5c-2.5,2.3-4.7,5-6.3,8c-2.4,4.1-4.4,8.3-6.2,12.7
			c-2.1,5-3.8,10.2-5.3,15.4c-1.6,5.4-2.8,10.8-3.8,16.4c-0.9,5.1-1.4,10.3-1.4,15.6c0,3.2,0.3,6.4,0.9,9.6c0.5,2.6,1.5,5.2,2.9,7.4
			c1.3,2,3.1,3.5,5.3,4.5c2.5,1,5.3,1.3,7.9,0.8c3-0.1,6.1-0.5,9-1.3c3.5-0.9,6.9-2.2,10.1-3.8c3.5-1.7,6.8-3.6,10-5.8
			c3.1-2.1,6-4.6,8.7-7.3c2.4-2.5,4.5-5.2,6.1-8.3c1.5-2.7,2.3-5.7,2.3-8.8c0-1.5-0.2-3-0.5-4.4c-0.3-1.8-0.8-3.6-1.5-5.3
			c-0.6-1.6-1.4-3.1-2.4-4.4c-0.8-1.1-2.1-1.8-3.4-1.8c-4-0.3-8.1,0.6-11.7,2.4c-3.4,1.7-6.6,3.9-9.5,6.3c-2.5,2.1-4.7,4.4-6.7,6.9
			l-3,4c-0.7,0-1.6,0-2.8-0.1c-1.2-0.1-2.4-0.3-3.6-0.7c-1.2-0.4-2.2-1-3.1-1.9c-0.9-1-1.4-2.3-1.3-3.7c0.1-2.5,1-5,2.5-7
			c1.8-2.5,3.9-4.7,6.3-6.6c2.7-2.2,5.6-4.1,8.6-5.8c3-1.7,6.2-3.3,9.3-4.7c2.8-1.2,5.6-2.3,8.5-3.1c2-0.6,4-1,6.1-1.1
			c3.3-0.1,6.5,0.6,9.4,2.1c2.5,1.4,4.6,3.3,6.3,5.6c1.7,2.4,3.1,5.1,4,7.9c1,2.9,1.9,6,2.8,9.1c0.3,1.3,0.9,3.7,1.8,7.2
			s1.7,7.2,2.6,11.2c0.9,4,1.7,7.9,2.5,11.9c0.8,3.9,1.3,7,1.5,9.4c-0.5,1-0.9,2.1-1.5,3.4c-0.5,1.2-1.1,2.3-1.9,3.3
			c-0.7,0.9-1.6,1.6-2.6,2c-1.2,0.4-2.6,0.2-3.7-0.4c-1.6-1-3-2.3-4-3.9c-1-1.6-1.8-3.4-2.4-5.2c-0.6-1.9-1.1-3.8-1.5-5.8
			c-0.4-2-0.8-3.9-1.1-5.7c-3.1,3.8-6.4,7.4-10,10.8c-3.6,3.5-7.6,6.6-11.8,9.4c-4.1,2.7-8.6,4.9-13.2,6.5
			c-4.6,1.6-9.5,2.4-14.4,2.4c-6.6,0-11.9-0.9-16-2.8c-3.9-1.7-7.3-4.4-9.7-7.9c-2.5-3.7-4.1-7.8-4.8-12.2
			C459.4,236.4,459,231.1,459,225.7"/>
	</g>
</g>
</svg>
