<svg xmlns="http://www.w3.org/2000/svg" viewBox="0 0 106 20"><defs><style>.cls-1{fill:#fff;}.cls-2{fill:#f0c823;}</style></defs><title>logo</title><g id="Camada_2" data-name="Camada 2"><g id="Camada_1-2" data-name="Camada 1"><path class="cls-1" d="M26.74,14.5V3.14h2.93v11.4h6v2.3H26.52Z"/><path class="cls-1" d="M40.32,3.14l4.26,8.93h0l.18-.62,4.08-8.31h3l.44,13.7H49.4L49.1,7.79H49L48.7,8.84l-3.16,7.07H43.62L40.48,8.82l-.32-1.09h-.05l-.19,9.1h-3l.42-11.9-.16-1.8Z"/><path class="cls-1" d="M63.13,14.68a10.85,10.85,0,0,0,1.6-.08,4.37,4.37,0,0,0,1.53-.46,1.11,1.11,0,0,0,.67-1,1.21,1.21,0,0,0-.46-1,3.13,3.13,0,0,0-1.12-.55q-.66-.18-1.93-.44a7.67,7.67,0,0,1-3.13-1.33,3.21,3.21,0,0,1-1.23-2.72,5.43,5.43,0,0,1,.05-.67,3.52,3.52,0,0,1,.76-1.85,4.11,4.11,0,0,1,1.82-1.23,8.13,8.13,0,0,1,2.83-.44,10.07,10.07,0,0,1,2.21.28,14.09,14.09,0,0,1,2.41.78l-.27,2.24a18.15,18.15,0,0,0-2.49-.75,9.43,9.43,0,0,0-2-.25,3.17,3.17,0,0,0-1.79.42A1.28,1.28,0,0,0,62,6.7a1.16,1.16,0,0,0,.33.86,2.28,2.28,0,0,0,.86.51q.53.19,1.56.44l1,.26a17.5,17.5,0,0,1,2.12.74,3.77,3.77,0,0,1,1.45,1.17A3.46,3.46,0,0,1,70,12.87a3.75,3.75,0,0,1-.7,2.27,4.36,4.36,0,0,1-2,1.47,8.76,8.76,0,0,1-3.16.51,9.48,9.48,0,0,1-1.88-.18,10.8,10.8,0,0,1-1.52-.41Q60,16.3,59.27,16l-.52-.22L59,13.44A17.58,17.58,0,0,0,63.13,14.68Z"/><path class="cls-1" d="M81,3.14l-.2,2.3H77v11.4H74.1V5.44H70.48l-.17-2.3Z"/><path class="cls-1" d="M78.83,16.85,84.15,3.14h2.62l4.59,11.6,1.1,2.11H89.22l-.81-2.05-6,0,.52-.9-1.13,2.93Zm6.95-8.79-.29-1.33h0l-.29,1.33L83.5,12.33h4Z"/><path class="cls-1" d="M93.86,5.44l-.19-2.3h5.79a6.13,6.13,0,0,1,3.73,1,3.64,3.64,0,0,1,1.31,3.12,4.89,4.89,0,0,1-.8,2.91,3.93,3.93,0,0,1-2.32,1.51,17.37,17.37,0,0,0,.88,1.78,3.34,3.34,0,0,0,.85,1,1.8,1.8,0,0,0,1.11.35,2.25,2.25,0,0,0,1.06-.3l.72,1.44a4.68,4.68,0,0,1-1.26.84,3.26,3.26,0,0,1-1.38.34,3.51,3.51,0,0,1-2.12-.6A4.25,4.25,0,0,1,100,15a24.49,24.49,0,0,1-1.08-2.58l-.2-.54H96.8v5H93.86Zm4.67,4.12a7.24,7.24,0,0,0,1.68-.16,1.74,1.74,0,0,0,1-.6,2,2,0,0,0,.35-1.26,2.1,2.1,0,0,0-.34-1.27,1.8,1.8,0,0,0-1-.64,6.37,6.37,0,0,0-1.69-.18H96.8V9.56Z"/><path class="cls-1" d="M11.06,4.82A6.48,6.48,0,0,0,6.32,6.28a6.4,6.4,0,0,0-.83,9.06c3.13,3.72,11.66,4.27,12,4.29h0a0,0,0,0,0,0,0c0-.36,1-8.78-2.1-12.5A6.46,6.46,0,0,0,11.06,4.82Zm3.53,6.77a4.06,4.06,0,0,1-1.47,2.78,4.16,4.16,0,0,1-5.82-.52,4.08,4.08,0,0,1,.53-5.77,4.16,4.16,0,0,1,5.82.52A4,4,0,0,1,14.59,11.59Z"/><path class="cls-2" d="M2.77,10.53a7.63,7.63,0,0,1,2.75-5.2q.3-.25.62-.46a32,32,0,0,0-5.92,2A.38.38,0,0,0,0,7a.37.37,0,0,0,0,.28,31.57,31.57,0,0,0,2.85,5.35A7.61,7.61,0,0,1,2.77,10.53Z"/><path class="cls-2" d="M8.07,18.68a10.15,10.15,0,0,1-3.54-2.54,7.59,7.59,0,0,1-1.46-2.68l0-.11a31.26,31.26,0,0,0,.06,6.32.38.38,0,0,0,.13.24A.38.38,0,0,0,3.5,20,32.36,32.36,0,0,0,9,19.09Q8.53,18.89,8.07,18.68Z"/><path class="cls-2" d="M10.59.1a.38.38,0,0,0-.52,0A31.71,31.71,0,0,0,6.19,4.83,7.7,7.7,0,0,1,7.88,4a7.83,7.83,0,0,1,6.94.88S10.75.24,10.59.1Z"/><path class="cls-2" d="M21.16,7.11A.38.38,0,0,0,21,6.9c-.19-.09-6.11-2-6.11-2a7.71,7.71,0,0,1,1.56,1.41,10,10,0,0,1,1.89,3.91,18.11,18.11,0,0,1,.39,1.91,31.77,31.77,0,0,0,2.46-4.74A.37.37,0,0,0,21.16,7.11Z"/></g></g></svg>