<svg xmlns="http://www.w3.org/2000/svg" viewBox="0 0 289.5 491.05"><title>phone</title><g id="Camada_2" data-name="Camada 2"><g id="Layer_1" data-name="Layer 1"><path d="M287.4,447.89l-53-103.58a19.12,19.12,0,0,0-22.81-9.53l-36.45,11.58a6.77,6.77,0,0,1-2,.36c-4.22,0-19.95-6.18-45.21-85.71-10.69-33.65-16-57.35-16.77-74.57-.4-9.19.32-20.52,6.06-22.35l36.46-11.58a19.13,19.13,0,0,0,13.14-20.94L150.39,16.42A19.12,19.12,0,0,0,125.66.91L89.21,12.48C48.38,25.44,19,63.36,6.45,119.23-5.26,171.45-.93,234.14,18.63,295.75c36.52,115,115,195.3,190.72,195.3a100.43,100.43,0,0,0,30.35-4.65l36.45-11.58a19.14,19.14,0,0,0,11.25-26.93Z"/></g></g></svg>