<svg xmlns="http://www.w3.org/2000/svg" viewBox="0 0 409.6 333.22"><title>phone2</title><g id="Camada_2" data-name="Camada 2"><g id="Layer_1" data-name="Layer 1"><path d="M409.6,117.67A117.81,117.81,0,0,0,291.93,0H117.67A117.81,117.81,0,0,0,0,117.67a34.79,34.79,0,0,0,34.75,34.75H67.91l-24,54.38a149.15,149.15,0,0,0-12.79,60.63v22.28a43.55,43.55,0,0,0,43.5,43.51H335a43.55,43.55,0,0,0,43.5-43.51V267.43a149.12,149.12,0,0,0-12.79-60.62l-24-54.38h33.18a34.79,34.79,0,0,0,34.75-34.75ZM117.67,26.83H291.93a91,91,0,0,1,83.93,56.09H298.54a36.2,36.2,0,0,0-26.1-11.11H137.16A36.2,36.2,0,0,0,111,83c-.26,0-.51,0-.77,0H33.75a91,91,0,0,1,83.93-56.09ZM34.75,125.59a7.93,7.93,0,0,1-7.92-7.92c0-2.67.13-5.31.35-7.92h73.66V120.1a5.49,5.49,0,0,1-5.49,5.49ZM351.65,267.43v22.28A16.69,16.69,0,0,1,335,306.39H74.62a16.7,16.7,0,0,1-16.68-16.68V267.43a122.51,122.51,0,0,1,10.5-49.79l28.83-65.28a32.36,32.36,0,0,0,30.4-32.25v-12a9.49,9.49,0,0,1,9.48-9.49H272.44a9.49,9.49,0,0,1,9.49,9.49v12a32.35,32.35,0,0,0,30.39,32.25l28.83,65.28a122.43,122.43,0,0,1,10.5,49.79ZM314.24,125.59a5.49,5.49,0,0,1-5.48-5.49V109.75h73.66c.23,2.61.35,5.25.35,7.92a7.93,7.93,0,0,1-7.92,7.92H314.24Zm0,0"/><path d="M172.8,166A14.84,14.84,0,1,1,158,151.2,14.84,14.84,0,0,1,172.8,166Zm0,0"/><path d="M219.64,166A14.84,14.84,0,1,1,204.8,151.2,14.84,14.84,0,0,1,219.64,166Zm0,0"/><path d="M266.49,166a14.84,14.84,0,1,1-14.84-14.84A14.84,14.84,0,0,1,266.49,166Zm0,0"/><path d="M172.8,211.16A14.84,14.84,0,1,1,158,196.31a14.84,14.84,0,0,1,14.84,14.84Zm0,0"/><path d="M219.64,211.16a14.84,14.84,0,1,1-14.84-14.84,14.84,14.84,0,0,1,14.84,14.84Zm0,0"/><path d="M266.49,211.16a14.84,14.84,0,1,1-14.84-14.84,14.84,14.84,0,0,1,14.84,14.84Zm0,0"/><path d="M172.8,256.27A14.84,14.84,0,1,1,158,241.42a14.84,14.84,0,0,1,14.84,14.84Zm0,0"/><path d="M219.64,256.27a14.84,14.84,0,1,1-14.84-14.84,14.84,14.84,0,0,1,14.84,14.84Zm0,0"/><path d="M266.49,256.27a14.84,14.84,0,1,1-14.84-14.84,14.84,14.84,0,0,1,14.84,14.84Zm0,0"/></g></g></svg>