<svg xmlns="http://www.w3.org/2000/svg" viewBox="0 0 417.6 417.6"><title>phone</title><g id="Camada_2" data-name="Camada 2"><g id="Layer_1" data-name="Layer 1"><path class="cls-1" d="M398,324.45l-80.26-80.26a24.6,24.6,0,0,0-34.75,0l-20.87,20.87a24.59,24.59,0,0,0-6.22,24.19l-7.88,7.88c-5.59,5.6-40.42-3-82.52-45.09s-50.69-76.91-45.09-82.51h0l7.88-7.88a24.59,24.59,0,0,0,24.19-6.22l20.87-20.87a24.59,24.59,0,0,0,0-34.75L93.15,19.56a24.57,24.57,0,0,0-34.75,0L37.53,40.43a24.59,24.59,0,0,0-6.22,24.19s-6.68,6.74-7,7.16c-22.2,24.68-26.37,63.54-11.65,110,14.41,45.49,45.49,93.67,87.5,135.68s90.19,73.08,135.68,87.49c18.27,5.79,35.36,8.66,50.89,8.66,25.45,0,46.67-7.72,61.88-22.93l4.38-4.38a24.75,24.75,0,0,0,6.83,1,24.4,24.4,0,0,0,17.37-7.2L398,359.2a24.6,24.6,0,0,0,0-34.75ZM75.78,36.93,156,117.19l-20.86,20.88h0l-.3-.3L95,97.93,54.9,57.8ZM331.22,373.3h0c-17.68,17.68-48.92,20.59-88,8.22-41.8-13.25-86.45-42.17-125.72-81.45s-68.2-83.92-81.44-125.73c-12.38-39.05-9.46-70.29,8.22-88l2.22-2.22,62.29,62.28-5.71,5.71h0c-23.67,23.7,4.77,76.92,45.1,117.25,30.19,30.19,67.6,53.71,94.44,53.71,9,0,16.86-2.66,22.82-8.62l5.71-5.71,62.28,62.28Zm28.58-10.6-80.26-80.26,20.87-20.87,80.26,80.26S359.81,362.7,359.8,362.7Zm0,0"/><path class="cls-1" d="M315.05,102.55a122.9,122.9,0,0,0-87.48-36.23,12.29,12.29,0,0,0,0,24.57A99.15,99.15,0,0,1,326.72,190a12.28,12.28,0,1,0,24.57,0,122.89,122.89,0,0,0-36.23-87.48Zm0,0"/><path class="cls-1" d="M359.12,58.48A184.82,184.82,0,0,0,227.57,4a12.29,12.29,0,1,0,0,24.57A161.45,161.45,0,0,1,389,190a12.28,12.28,0,1,0,24.57,0A184.8,184.8,0,0,0,359.12,58.48Zm0,0"/><path class="cls-1" d="M271,146.61a60.16,60.16,0,0,0-43.4-18h0a12.29,12.29,0,0,0,0,24.57h0a35.62,35.62,0,0,1,26,10.78,36.1,36.1,0,0,1,10.78,26,12.28,12.28,0,0,0,12.28,12.29h0A12.29,12.29,0,0,0,289,190a60.19,60.19,0,0,0-18-43.41Zm0,0"/></g></g></svg>