<svg xmlns="http://www.w3.org/2000/svg" viewBox="0 0 318.03 413.6"><title>safe</title><g id="Camada_2" data-name="Camada 2"><g id="Layer_1" data-name="Layer 1"><path class="cls-1" d="M288.71,165.84H29.32A27.35,27.35,0,0,0,2,193.16V384.28A27.35,27.35,0,0,0,29.32,411.6H288.71A27.34,27.34,0,0,0,316,384.28V193.16a27.34,27.34,0,0,0-27.31-27.32Zm13.65,218.44a13.67,13.67,0,0,1-13.66,13.66H29.31a13.68,13.68,0,0,1-13.66-13.66V193.16a13.68,13.68,0,0,1,13.66-13.67H288.7a13.68,13.68,0,0,1,13.66,13.67Zm0,0"/><path class="cls-1" d="M159,2A109.35,109.35,0,0,0,49.78,111.23v61.44a6.82,6.82,0,0,0,6.83,6.82h204.8a6.82,6.82,0,0,0,6.83-6.82V111.23A109.35,109.35,0,0,0,159,2Zm95.57,163.84H63.43V111.23a95.57,95.57,0,1,1,191.15,0Zm0,0"/><path class="cls-1" d="M159,29.3a82,82,0,0,0-81.92,81.92v61.44a6.82,6.82,0,0,0,6.83,6.82H234.1a6.82,6.82,0,0,0,6.82-6.82V111.23A82,82,0,0,0,159,29.3Zm68.27,136.54H90.74V111.23a68.27,68.27,0,1,1,136.53,0Zm0,0"/><path class="cls-1" d="M309.2,343.33H8.83A6.82,6.82,0,0,0,2,350.16v34.12A27.34,27.34,0,0,0,29.32,411.6H288.71A27.35,27.35,0,0,0,316,384.28V350.16a6.83,6.83,0,0,0-6.82-6.83Zm-6.84,40.95a13.67,13.67,0,0,1-13.66,13.66H29.31a13.68,13.68,0,0,1-13.66-13.66V357H302.36Zm0,0"/><path class="cls-1" d="M180.23,214.19a34.41,34.41,0,0,0-29.3-6.46,34.05,34.05,0,0,0-12.4,60.38v27.44a20.48,20.48,0,0,0,41,0V268.09a34,34,0,0,0,.74-53.9Zm-11,44.37a6.82,6.82,0,0,0-3.39,5.9v31.09a6.83,6.83,0,0,1-13.65,0V264.45a6.81,6.81,0,0,0-3.4-5.9A20.41,20.41,0,0,1,154,221a22.19,22.19,0,0,1,5-.59,20.41,20.41,0,0,1,10.18,38.11Zm0,0"/></g></g></svg>