<svg xmlns="http://www.w3.org/2000/svg" viewBox="0 0 409.6 341.34"><title>shipping</title><g id="Camada_2" data-name="Camada 2"><g id="Layer_1" data-name="Layer 1"><path d="M366.94,137.26V128a25.63,25.63,0,0,0-25.6-25.6H256V59.73a8.53,8.53,0,0,0-8.53-8.54h-25.6V25.6a8.54,8.54,0,0,0-8.54-8.53H97.41L82.84,2.5a8.53,8.53,0,0,0-12.07,0L22.07,51.2H8.53A8.53,8.53,0,0,0,0,59.73V298.67a8.53,8.53,0,0,0,8.53,8.53h35a42.47,42.47,0,0,0,7.7,17.07H34.13a8.54,8.54,0,0,0,0,17.07H85.39a42.74,42.74,0,0,0,41.75-34.13H282.46a42.47,42.47,0,0,0,7.7,17.07H273.07a8.53,8.53,0,0,0,0,17.07h51.26a42.74,42.74,0,0,0,41.75-34.13h35a8.54,8.54,0,0,0,8.54-8.54V187.73a51.28,51.28,0,0,0-42.66-50.48ZM204.8,34.14V51.2H131.54L114.47,34.14ZM76.8,20.6l11,11h0L107.4,51.2H46.2Zm8.53,303.66a25.6,25.6,0,1,1,25.6-25.6,25.63,25.63,0,0,1-25.6,25.6Zm153.6-213.33V256h-58a8.53,8.53,0,1,0,0,17.07h58v17.07H127.14a42.67,42.67,0,0,0-83.62,0H17.07V153.6H51.2a8.53,8.53,0,0,0,0-17.07H17.07V119.47h102.4a8.53,8.53,0,0,0,0-17.07H17.07V68.26H238.93Zm43.53,179.2H256V273.07h34.16a42.46,42.46,0,0,0-7.7,17.07Zm67.41,8.56a25.6,25.6,0,1,1-25.66-25.63h.09a25.63,25.63,0,0,1,25.58,25.57s0,0,0,0v0Zm42.66-8.56H366.08A42.74,42.74,0,0,0,324.27,256H256V119.47h85.34a8.54,8.54,0,0,1,8.53,8.53v8.53H290.14a8.53,8.53,0,0,0-8.53,8.54v76.8a8.53,8.53,0,0,0,8.53,8.54h102.4ZM315.74,153.6v59.73H298.67V153.6Zm76.8,59.73H332.8V153.6h25.6a34.17,34.17,0,0,1,34.13,34.13Zm0,0"/></g></g></svg>