<svg xmlns="http://www.w3.org/2000/svg" viewBox="0 0 298.06 327.19"><title>support</title><g id="Camada_2" data-name="Camada 2"><g id="Layer_1" data-name="Layer 1"><path class="cls-1" d="M68.65,84.15a5.6,5.6,0,0,1,7.92-7.92l17.89,17.9A5.6,5.6,0,1,1,86.54,102ZM149,79.44a5.6,5.6,0,0,0,5.6-5.6V48.53a5.6,5.6,0,1,0-11.2,0V73.84a5.6,5.6,0,0,0,5.6,5.6Zm58.52,24.24a5.58,5.58,0,0,0,4-1.64l17.89-17.9a5.6,5.6,0,0,0-7.92-7.92L203.6,94.12a5.6,5.6,0,0,0,4,9.56ZM71.86,156.61a5.6,5.6,0,0,0-5.6-5.6H41a5.6,5.6,0,0,0,0,11.2H66.26a5.6,5.6,0,0,0,5.6-5.6Zm139.66,54.57a5.6,5.6,0,0,0-7.92,7.92L221.49,237a5.6,5.6,0,1,0,7.92-7.92ZM257.1,151H231.8a5.6,5.6,0,1,0,0,11.2h25.3a5.6,5.6,0,1,0,0-11.2ZM86.54,211.18,68.65,229.07A5.6,5.6,0,0,0,76.57,237L94.46,219.1a5.6,5.6,0,0,0-7.92-7.92ZM296.06,23.07V290.15a13.5,13.5,0,0,1-13.49,13.49H271.82v16a5.6,5.6,0,0,1-5.6,5.6H244.66a5.6,5.6,0,0,1-5.6-5.6v-16H59v16a5.6,5.6,0,0,1-5.6,5.6H31.84a5.6,5.6,0,0,1-5.6-5.6v-16H15.49A13.51,13.51,0,0,1,2,290.15V23.07A13.51,13.51,0,0,1,15.49,9.58h15A5.6,5.6,0,0,1,35.71,2H59.18a5.6,5.6,0,0,1,5.6,5.6,5.53,5.53,0,0,1-.36,2H282.57a13.51,13.51,0,0,1,13.49,13.49ZM47.8,303.64H37.44V314H47.8Zm212.82,0H250.27V314h10.35ZM284.86,23.07a2.32,2.32,0,0,0-2.29-2.29H15.49a2.32,2.32,0,0,0-2.29,2.29V290.15a2.32,2.32,0,0,0,2.29,2.29H282.57a2.32,2.32,0,0,0,2.29-2.29ZM149,106.16a5.6,5.6,0,0,0-5.6,5.6v53l-30.77,25.1a5.6,5.6,0,1,0,7.08,8.68l32.83-26.78a5.61,5.61,0,0,0,2.06-4.34V111.76a5.6,5.6,0,0,0-5.6-5.6Zm0,127.62a5.6,5.6,0,0,0-5.6,5.6v25.31a5.6,5.6,0,0,0,11.2,0V239.38a5.6,5.6,0,0,0-5.6-5.6Zm0,0"/></g></g></svg>