<svg xmlns="http://www.w3.org/2000/svg" viewBox="0 0 331.61 375.16"><defs><style>.cls-1{fill:#65d1af;}.cls-2{fill:#fff;}.cls-3{fill:#241f20;fill-rule:evenodd;}</style></defs><title>tag</title><g id="Camada_2" data-name="Camada 2"><g id="Isolation_Mode" data-name="Isolation Mode"><path class="cls-1" d="M331.61,209.36a165.81,165.81,0,1,1-165.8-165.8,165.81,165.81,0,0,1,165.8,165.8"/><path class="cls-2" d="M165.94,359.05a7.43,7.43,0,0,1,0-14.87,134.79,134.79,0,0,0,41.64-6.59,7.43,7.43,0,1,1,4.6,14.13A149.52,149.52,0,0,1,166,359.05ZM122,352.18a7.53,7.53,0,0,1-2.29-.36A149.24,149.24,0,0,1,78,330.59a7.43,7.43,0,0,1,8.73-12,134.23,134.23,0,0,0,37.58,19.12A7.44,7.44,0,0,1,122,352.18M249.5,331.85a7.43,7.43,0,0,1-4.38-13.44,135.46,135.46,0,0,0,29.81-29.84,7.43,7.43,0,0,1,12,8.75,150.22,150.22,0,0,1-33.08,33.11,7.4,7.4,0,0,1-4.37,1.43M50.84,300.59a7.42,7.42,0,0,1-6-3,149.08,149.08,0,0,1-21.35-41.67,7.43,7.43,0,1,1,14.13-4.62,134.2,134.2,0,0,0,19.23,37.52,7.44,7.44,0,0,1-6,11.82m250.31-39.85a7.45,7.45,0,0,1-7.07-9.73,134.83,134.83,0,0,0,6.56-41.66v-.57a7.43,7.43,0,1,1,14.87,0v.57a149.66,149.66,0,0,1-7.28,46.24,7.44,7.44,0,0,1-7.07,5.14M23.54,216.93a7.31,7.31,0,0,1-7.43-7.29h7.43l-7.43-.13a149.74,149.74,0,0,1,7.19-46.11A7.43,7.43,0,1,1,37.45,168,134.71,134.71,0,0,0,31,209.36a7.55,7.55,0,0,1-7.43,7.57M301,172.31a7.43,7.43,0,0,1-7.06-5.11,134.24,134.24,0,0,0-19.31-37.48,7.43,7.43,0,0,1,12-8.79A149.09,149.09,0,0,1,308,162.55a7.44,7.44,0,0,1-7.06,9.76M50.5,133.43a7.43,7.43,0,0,1-6-11.79,150.11,150.11,0,0,1,33-33.17,7.43,7.43,0,0,1,8.78,12,135.28,135.28,0,0,0-29.75,29.89,7.42,7.42,0,0,1-6,3.07m198.54-32A7.42,7.42,0,0,1,244.7,100a134.1,134.1,0,0,0-37.61-19,7.43,7.43,0,0,1,4.55-14.16,149.13,149.13,0,0,1,41.78,21.14A7.43,7.43,0,0,1,249,101.41M121.46,81.58a7.43,7.43,0,0,1-2.31-14.5,149.57,149.57,0,0,1,46.22-7.42h0a7.43,7.43,0,0,1,0,14.87,134.74,134.74,0,0,0-41.63,6.68,7.4,7.4,0,0,1-2.32.37"/><path class="cls-3" d="M258.72,11c-1,3.79-2,7.79-3.15,11.75-2,6.77-3.91,13.57-6.17,20.24-1.57,4.64-3.69,9.08-5.55,13.62-5.61,13.66-11.5,27.2-16.72,41-3.72,9.84-6.48,20-9.71,30-2,6.09-4,12.15-6,18.24q-2.81,8.63-5.6,17.24c-3,9.4-6.05,18.79-9,28.21-2.59,8.21-5,16.46-7.6,24.68-3.59,11.54-7.25,23.05-10.84,34.58-1.84,5.89-3.6,11.78-5.37,17.68-3.31,11-7,21.88-11.3,32.54-3.11,7.64-5.85,15.43-8.8,23.14-.82,2.13-2.44,2.62-4.21,1.28a2.18,2.18,0,0,1-.68-1.86c2.67-10.18,5.43-20.36,8.15-30.53,1.72-6.42,3.33-12.88,5.13-19.28,1.39-5,3-10,4.52-14.93,2.17-7,4.38-13.92,6.57-20.87q5-16,10.06-32c4-12.68,7.85-25.38,11.8-38.06,1.45-4.68,3-9.33,4.5-14,3.17-10.22,6.3-20.46,9.46-30.67,2.28-7.38,4.71-14.7,6.86-22.12,3.14-10.86,6.16-21.74,9.12-32.67,1-3.57,1.51-7.25,2.28-10.89,1.1-5.14,2.09-10.31,3.39-15.42,1.66-6.66,3.21-13.41,5.51-19.87a187,187,0,0,1,8.11-18.34c1.44-3,6.16-4.37,10.06-3.48,2.66.62,4.8,3.5,5.18,7.1.11,1.13.05,2.26.08,3.65m-27,45.52a2,2,0,0,1,.25.07,9,9,0,0,0-.21,2.3,3.19,3.19,0,0,0,1,1.9c.25.2,1.23-.21,1.66-.59a5.42,5.42,0,0,0,1.39-2q3.11-8.49,6.09-17c2.85-8.26,5.69-16.52,8.43-24.8a25.83,25.83,0,0,0,1.36-6.1c.05-.81-1-1.86-1.81-2.46-.23-.17-1.59.75-2,1.43A17.94,17.94,0,0,0,246.16,13c-3.68,10.56-7.37,21.11-11,31.7-1.32,3.9-2.32,7.92-3.44,11.88"/><path class="cls-2" d="M86.14,249.11q-.5-6.34-.84-12.52t-.66-12.35Q84,213.39,83.3,202.88t-1.84-21.53A5.52,5.52,0,0,1,79,183.18a11.16,11.16,0,0,1-4.26.67c-1.11,0-2.32-.06-3.59-.17a9.05,9.05,0,0,1-3.5-1A7,7,0,0,1,65,180.1a9,9,0,0,1-1.09-4.76v-.17c0-.11,0-.17.09-.17s.09,0,.09-.16a1.68,1.68,0,0,0,.16-.75v-.76a88.93,88.93,0,0,0,7.18-6.67q2.84-3,4.68-5a47.7,47.7,0,0,1,6.93-6.6Q86.64,152.3,94,149.8q3.51-1.51,7.6-3.17t8.6-3q4.5-1.34,9.17-2.25a47.8,47.8,0,0,1,9.19-.92,26.9,26.9,0,0,1,13.35,3.26q5.85,3.25,8.68,11.93a34.16,34.16,0,0,1-2.84,9.85A82.06,82.06,0,0,1,142,176.26a124.82,124.82,0,0,1-7.51,10.6q-4.1,5.17-7.76,9.34,6.17,0,13.6.51a55.94,55.94,0,0,1,13.94,2.67A26.41,26.41,0,0,1,165.11,206q4.33,4.51,4.34,12.51a37.64,37.64,0,0,1-5.18,19,60.08,60.08,0,0,1-13.18,15.86,66.87,66.87,0,0,1-17.87,10.93,49.53,49.53,0,0,1-19,4.1,34.87,34.87,0,0,1-8.93-1.17,29.73,29.73,0,0,1-8.18-3.51A26.36,26.36,0,0,1,90.48,258a22.58,22.58,0,0,1-4.17-8.34Zm47.41-94c-.9-1-2.61-1.5-5.18-1.5a34.59,34.59,0,0,0-8.93,1.33,99.25,99.25,0,0,0-9.68,3.17,74.28,74.28,0,0,0-8.6,3.92,38.2,38.2,0,0,0-5.68,3.59q.84,9,1.34,17.95t1.34,17.94a15.68,15.68,0,0,0,7.09-3.09,62.13,62.13,0,0,0,8.1-6.93,94.69,94.69,0,0,0,8.09-9.27q3.92-5.09,7-10a70.3,70.3,0,0,0,5-9.35,19.16,19.16,0,0,0,1.92-7.09c-.22.23-.39.34-.5.34ZM98.33,202a.36.36,0,0,0-.08-.25.33.33,0,0,1-.08-.25h-.5a1.2,1.2,0,0,0,.33.25,1.73,1.73,0,0,1,.33.25M101,248.78v-1a3.82,3.82,0,0,1-.67-1Zm0-1a15.58,15.58,0,0,0,6.26,4.59,20.91,20.91,0,0,0,7.77,1.42,35.72,35.72,0,0,0,13.61-2.92,52.47,52.47,0,0,0,12.93-7.59,45.49,45.49,0,0,0,9.69-10.52,21.13,21.13,0,0,0,3.84-11.68,10.14,10.14,0,0,0-2.26-6.93,14.26,14.26,0,0,0-5.67-3.92,28.55,28.55,0,0,0-7.51-1.75,77.6,77.6,0,0,0-7.76-.42q-2,0-7.1.33a68.71,68.71,0,0,0-10.35,1.5,41.94,41.94,0,0,0-9.35,3.17q-4.09,2-4.09,5.51Z"/><path class="cls-2" d="M177.29,225.74a74.86,74.86,0,0,1,1.42-12.27q1.4-7.92,4-17.27T189,177.26a112.33,112.33,0,0,1,8.35-17.44A54.48,54.48,0,0,1,207.59,147q5.59-5,11.77-5H219a32.62,32.62,0,0,1,4-.09,10.88,10.88,0,0,1,4.25,1.09,11.43,11.43,0,0,1,3.84,3.18,16,16,0,0,1,2.75,6,6.19,6.19,0,0,1-1.08,3.59,8.75,8.75,0,0,1-2.76,2.59,11.61,11.61,0,0,1-3.76,1.42,11.26,11.26,0,0,1-4.09.09,9.49,9.49,0,0,0-.92-1.42,2.34,2.34,0,0,0-1.25-.92q-2.51-1.16-5.68,1.5a31.14,31.14,0,0,0-6.34,8,95.77,95.77,0,0,0-6.18,12.69,153.82,153.82,0,0,0-5.34,15.44,150.78,150.78,0,0,0-3.76,16.35,92.67,92.67,0,0,0-1.41,15.61,47.12,47.12,0,0,0,.92,9.59,20.79,20.79,0,0,0,2.92,7.43,12.54,12.54,0,0,0,5.26,4.51,14,14,0,0,0,7.93.83,35.2,35.2,0,0,0,9-1.33,58.85,58.85,0,0,0,10.1-3.75,76.32,76.32,0,0,0,10-5.76,54.25,54.25,0,0,0,8.68-7.27,38,38,0,0,0,6.1-8.27,18.47,18.47,0,0,0,2.33-8.84,26.38,26.38,0,0,0-.5-4.43,29.44,29.44,0,0,0-1.5-5.33,17.56,17.56,0,0,0-2.42-4.42,4.21,4.21,0,0,0-3.43-1.84,22.38,22.38,0,0,0-11.68,2.42,48.74,48.74,0,0,0-9.51,6.34,44.88,44.88,0,0,0-6.68,6.92l-3,4c-.67,0-1.61,0-2.84-.08a13.22,13.22,0,0,1-3.59-.67,7.63,7.63,0,0,1-3.08-1.92,4.93,4.93,0,0,1-1.34-3.67,12,12,0,0,1,2.51-7,33.62,33.62,0,0,1,6.34-6.59,62.77,62.77,0,0,1,8.6-5.76,102.59,102.59,0,0,1,9.35-4.67,63.46,63.46,0,0,1,8.51-3.09,24.44,24.44,0,0,1,6.09-1.09,19.23,19.23,0,0,1,9.43,2.09A18.86,18.86,0,0,1,262.1,191a30.17,30.17,0,0,1,4,7.93q1.5,4.42,2.84,9.1.5,2,1.75,7.17t2.59,11.18q1.34,6,2.5,11.85c.78,3.9,1.28,7,1.5,9.35-.45,1-.94,2.14-1.5,3.42a16,16,0,0,1-1.92,3.34,6,6,0,0,1-2.58,2,4.69,4.69,0,0,1-3.68-.42,11.8,11.8,0,0,1-4-3.92,24.9,24.9,0,0,1-2.42-5.17,47.39,47.39,0,0,1-1.5-5.76c-.4-2-.75-3.9-1.08-5.68a118.12,118.12,0,0,1-10,10.77,81.81,81.81,0,0,1-11.77,9.35A60.49,60.49,0,0,1,223.61,262a43.56,43.56,0,0,1-14.44,2.42q-9.86,0-16-2.75a22.67,22.67,0,0,1-9.68-7.85,31.41,31.41,0,0,1-4.84-12.18,86.34,86.34,0,0,1-1.34-15.94"/></g></g></svg>