<svg xmlns="http://www.w3.org/2000/svg" viewBox="0 0 16.5 16.5"><title>user</title><g id="Camada_2" data-name="Camada 2"><g id="Layer_1" data-name="Layer 1"><path class="cls-1" d="M8.25,11.25c2.48,0,4.5-2.47,4.5-5.5s-2-5.5-4.5-5.5A4.11,4.11,0,0,0,5,1.9,6.16,6.16,0,0,0,3.75,5.75c0,3,2,5.5,4.5,5.5Zm0-10c1.93,0,3.5,2,3.5,4.5s-1.57,4.5-3.5,4.5-3.5-2-3.5-4.5,1.57-4.5,3.5-4.5Zm3.5,9a.5.5,0,0,0,0,1,3.5,3.5,0,0,1,3.5,3.5.5.5,0,0,1-.5.5h-13a.5.5,0,0,1-.5-.5,3.5,3.5,0,0,1,3.5-3.5.5.5,0,1,0,0-1,4.5,4.5,0,0,0-4.5,4.5,1.5,1.5,0,0,0,1.5,1.5h13a1.5,1.5,0,0,0,1.5-1.5,4.51,4.51,0,0,0-4.5-4.5Zm0,0"/></g></g></svg>