<svg xmlns="http://www.w3.org/2000/svg" viewBox="0 0 409.6 409.6"><title>whatsapp</title><g id="Camada_2" data-name="Camada 2"><g id="Layer_1" data-name="Layer 1"><path d="M409.6,199.52c0,110.2-90,199.53-201.08,199.53a201.41,201.41,0,0,1-97.2-24.83L0,409.6,36.3,302.55a197.38,197.38,0,0,1-28.86-103C7.44,89.33,97.46,0,208.52,0S409.6,89.33,409.6,199.52ZM208.52,31.78C115.3,31.78,39.47,107,39.47,199.52a166,166,0,0,0,32.2,98.35l-21.12,62.3,65-20.65a168.93,168.93,0,0,0,93,27.75c93.21,0,169.06-75.24,169.06-167.74S301.74,31.78,208.52,31.78Zm101.54,213.7c-1.24-2-4.52-3.26-9.45-5.71s-29.17-14.28-33.68-15.91-7.82-2.45-11.1,2.45-12.73,15.91-15.61,19.17-5.75,3.68-10.68,1.23-20.81-7.61-39.63-24.27c-14.65-13-24.54-29-27.42-33.87s-.3-7.54,2.16-10c2.22-2.2,4.93-5.71,7.39-8.57s3.29-4.89,4.93-8.16.83-6.12-.41-8.57-11.1-26.51-15.2-36.31-8.2-8.16-11.09-8.16-6.16-.41-9.45-.41a18.19,18.19,0,0,0-13.15,6.12c-4.52,4.9-17.25,16.73-17.25,40.79s17.65,47.32,20.12,50.58,34.09,54.25,84.2,73.83,50.11,13,59.15,12.22,29.15-11.83,33.28-23.24,4.09-21.22,2.87-23.26Zm0,0"/></g></g></svg>